<?xml version="1.0" encoding="UTF-8"?>
<!-- Generator: Adobe Illustrator 15.0.0, SVG Export Plug-In . SVG Version: 6.00 Build 0)  -->
<!DOCTYPE svg PUBLIC "-//W3C//DTD SVG 1.1//EN" "http://www.w3.org/Graphics/SVG/1.1/DTD/svg11.dtd">
<svg version="1.1" id="Capa_1" xmlns="http://www.w3.org/2000/svg" xmlns:xlink="http://www.w3.org/1999/xlink" x="0px" y="0px" width="447.948px" height="97.354px" viewBox="0 0 447.948 97.354" enable-background="new 0 0 447.948 97.354" xml:space="preserve">
<path fill="#4A307B" d="M332.01,17.624h-37.34c-5.813,0.698-11.449,4.149-14.399,9.435c-3.944,7.753-4.049,17.625-4.329,27  c0.903,9.546,2.123,19.248,11.461,23.302l6.487,1.81h38.401l0.099,16.043h-41.056c-13.625-0.236-26.98-8.664-32.211-20.802  c-7.266-18.225-6.938-45.372,5.77-60.592c9.901-10.758,24.679-12.572,39.638-12.175h27.479V17.624z"/>
<polygon fill="#4A307B" points="83.874,48.637 42.651,90.601 1.088,90.601 40.932,48.637 0,6.088 41.891,6.088 "/>
<polygon fill="#4A307B" points="138.449,48.899 97.829,90.77 55.946,90.77 96.133,48.899 55.2,6.409 97.085,6.409 "/>
<path fill="#4A307B" d="M238.174,20.74c-2.188-4.105-5.38-8.689-9.39-11.791C213.757-1.98,190.487-1.835,173.07,3.706  c-11.279,4.182-20.188,14.772-22.272,26.135c-3.548,16.638-2.762,36.545,5.803,50.471c8.906,14.756,27.371,17.438,44.16,17  c15.453-0.422,32.04-6.614,37.924-21.292C245.402,60.181,245.415,36.651,238.174,20.74 M220.494,63.79  c-1.955,6.92-6.397,13.696-13.69,16.043c-10.623,2.87-23.428,2.455-30.299-7.053c-6.886-10.648-6.66-26.938-4.082-39.782  c1.95-7.088,7.064-13.865,14.696-15.893c11.284-2.699,24.259-0.972,30.314,9.52C222.649,36.959,223.076,51.927,220.494,63.79"/>
<path fill="#4A307B" d="M428.052,56.078L404.258,1.572H383.32l-39.791,93.47h20.768l8.505-22.13h41.063l9.271,22.201h21.614  C439.35,81.988,433.447,68.704,428.052,56.078 M379.114,55.958l13.8-35.529l14.352,35.529H379.114z"/>
</svg>