<svg xmlns="http://www.w3.org/2000/svg" xmlns:xlink="http://www.w3.org/1999/xlink" width="412.867" height="301.285" viewBox="0 0 412.867 301.285">
  <defs>
    <linearGradient id="linear-gradient" x1="767.961" y1="-0.052" x2="768.589" y2="1.013" gradientUnits="objectBoundingBox">
      <stop offset="0" stop-color="#ffa48b"/>
      <stop offset="0.087" stop-color="#ffaa92"/>
      <stop offset="0.337" stop-color="#ffb6a2"/>
      <stop offset="0.62" stop-color="#ffbeac"/>
      <stop offset="1" stop-color="#ffc1af"/>
    </linearGradient>
    <linearGradient id="linear-gradient-2" x1="-492.69" y1="0.302" x2="-492.256" y2="1.085" gradientUnits="objectBoundingBox">
      <stop offset="0" stop-color="#5c6bb5"/>
      <stop offset="1" stop-color="#7980c0"/>
    </linearGradient>
    <linearGradient id="linear-gradient-3" x1="0.244" y1="-0.737" x2="0.454" y2="0.258" gradientUnits="objectBoundingBox">
      <stop offset="0" stop-color="#c27770"/>
      <stop offset="1" stop-color="#ffcdbb"/>
    </linearGradient>
    <radialGradient id="radial-gradient" cx="-0.161" cy="0.043" r="0.882" gradientTransform="translate(315.355) scale(1.485 1)" xlink:href="#linear-gradient-3"/>
  </defs>
  <g id="A_dedicated_success_team_to_guide_you_every_step_of_the_way" data-name="A dedicated success team to guide you every step of the way" transform="translate(-1762.133 -179.982)">
    <g id="Group_47283" data-name="Group 47283">
      <g id="Group_47282" data-name="Group 47282">
        <g id="Group_47279" data-name="Group 47279">
          <rect id="Rectangle_32118" data-name="Rectangle 32118" width="293.384" height="188.817" rx="15.436" transform="translate(1828.435 179.982)" fill="#7986cb"/>
          <rect id="Rectangle_32119" data-name="Rectangle 32119" width="278.744" height="168.973" rx="8.223" transform="translate(1835.755 186.319)" fill="#fff"/>
        </g>
        <rect id="Rectangle_32120" data-name="Rectangle 32120" width="251.672" height="143.144" rx="4.574" transform="translate(1849.018 198.471)" fill="#fff" stroke="#e8eaf6" stroke-miterlimit="10" stroke-width="2.352"/>
        <g id="Group_47280" data-name="Group 47280">
          <rect id="Rectangle_31427" data-name="Rectangle 31427" width="44.089" height="44.081" rx="6.968" transform="translate(1873.737 259.786) rotate(-89.352)" fill="#e8eaf6"/>
          <path id="Rectangle_31428" data-name="Rectangle 31428" d="M1939.411,223.141l40.946.464a5.71,5.71,0,0,1,5.645,5.774h0a5.709,5.709,0,0,1-5.774,5.645l-40.946-.463a5.711,5.711,0,0,1-5.646-5.774h0A5.711,5.711,0,0,1,1939.411,223.141Z" fill="#e8eaf6"/>
          <path id="Rectangle_31429" data-name="Rectangle 31429" d="M1939.158,244.407l83.044.94a5.71,5.71,0,0,1,5.646,5.774h0a5.71,5.71,0,0,1-5.775,5.645l-83.044-.94a5.709,5.709,0,0,1-5.645-5.774h0A5.71,5.71,0,0,1,1939.158,244.407Z" fill="#e8eaf6"/>
        </g>
        <g id="Group_47281" data-name="Group 47281">
          <rect id="Rectangle_31430" data-name="Rectangle 31430" width="44.089" height="44.081" rx="6.968" transform="translate(2029.642 325.493) rotate(-89.352)" fill="#e8eaf6"/>
          <path id="Rectangle_31431" data-name="Rectangle 31431" d="M2008.778,299.955l-35.813-.4a5.71,5.71,0,0,1-5.645-5.774h0a5.711,5.711,0,0,1,5.774-5.646l35.813.406a5.709,5.709,0,0,1,5.645,5.774h0A5.71,5.71,0,0,1,2008.778,299.955Z" fill="#e8eaf6"/>
          <path id="Rectangle_31432" data-name="Rectangle 31432" d="M1954.352,299.4l-12.2-.138a5.709,5.709,0,0,1-5.645-5.774h0a5.71,5.71,0,0,1,5.774-5.646l12.2.138a5.71,5.71,0,0,1,5.645,5.775h0A5.71,5.71,0,0,1,1954.352,299.4Z" fill="#e8eaf6"/>
          <path id="Rectangle_31433" data-name="Rectangle 31433" d="M2008.533,321.7l-66.689-.755a5.709,5.709,0,0,1-5.645-5.774h0a5.709,5.709,0,0,1,5.774-5.645l66.689.754a5.711,5.711,0,0,1,5.646,5.775h0A5.71,5.71,0,0,1,2008.533,321.7Z" fill="#e8eaf6"/>
        </g>
      </g>
      <g id="Group_46286" data-name="Group 46286">
        <path id="Path_142080" data-name="Path 142080" d="M1897.035,236.886c0,4.254-2.273,8.139-7.11,8.139s-6.967-3.52-6.967-8.067,2.493-8.068,7.11-8.068S1897.035,232.265,1897.035,236.886Zm-12.761.073c0,3.593,1.981,6.967,5.721,6.967s5.721-3.3,5.721-7.041-1.907-6.821-5.721-6.821-5.721,3.3-5.721,6.821Zm9.021,6.38,4.694,3.374-.807.953L1892.049,244Z" fill="#7986cb"/>
        <path id="Path_142081" data-name="Path 142081" d="M1902.683,244.806V231.531a9.952,9.952,0,0,1-3.3,1.684v-1.029a12.251,12.251,0,0,0,3.52-2.2h.954V244.8Z" fill="#7986cb"/>
        <path id="Path_142082" data-name="Path 142082" d="M1908.037,236.518v-2.86h1.1v2.86Zm0,8.287v-2.933h1.1v2.934Z" fill="#7986cb"/>
      </g>
      <g id="Group_46287" data-name="Group 46287">
        <path id="Path_142083" data-name="Path 142083" d="M2050.859,303.339c0,4.254-2.274,8.14-7.111,8.14s-6.967-3.521-6.967-8.068,2.493-8.067,7.11-8.067S2050.859,298.791,2050.859,303.339Zm-12.762.073c0,3.594,1.981,6.968,5.721,6.968s5.721-3.3,5.721-7.042-1.906-6.82-5.721-6.82-5.721,3.3-5.721,6.82Zm9.021,6.381,4.694,3.374-.807.953-5.133-3.667Z" fill="#7986cb"/>
        <path id="Path_142084" data-name="Path 142084" d="M2053.353,311.26h0c0-1.834,1.54-4.107,4.474-6.381s3.227-2.567,3.227-4.474a2.788,2.788,0,0,0-2.549-3.007,2.909,2.909,0,0,0-.458,0c-1.981,0-3.081.954-3.448,3.08h-1.173a4.313,4.313,0,0,1,4.547-4.18,4.072,4.072,0,0,1,4.25,3.885c0,.05,0,.1,0,.149,0,1.981-.954,3.007-3.668,5.281s-3.52,3.154-3.96,4.621h8.214l-.219,1.1Z" fill="#7986cb"/>
        <path id="Path_142085" data-name="Path 142085" d="M2066.554,302.972v-2.86h1.1v2.86Zm0,8.287v-2.933h1.1v2.934Z" fill="#7986cb"/>
      </g>
    </g>
    <path id="Path_143917" data-name="Path 143917" d="M2105.007,316.59a55.714,55.714,0,0,0,13.2,1.574,367.368,367.368,0,0,0,.488-65.93l-9.574.6a1.374,1.374,0,0,0-1.6,1.47c-1.42,9.98-1.221,19.293-1.209,29.362C2106.31,286.483,2104.728,316.522,2105.007,316.59Z" fill="#3f3f3f"/>
    <path id="Path_143918" data-name="Path 143918" d="M2055.315,236.568c1.96.529,3.659,1.855,5.541,2.267a23.684,23.684,0,0,1,3.946,1.1,3.606,3.606,0,0,0-.387-1.937c-.531-.873-1.137-.944-1.691-1.976-.262-.487-.72-1.575-.4-1.844.58-.49,3.492,1.924,5.42,4.328,1.414,1.76,4.113,6.309,4.015,7.169,2.072,2,10.2,7.019,20.3,16.055,3.193-1.849,24.371-16.976,28.237-16.136s.966,12.043-3.908,15.236-24.329,12.98-26.514,12.665-18.111-21.664-22.888-24.809c-1.505-.424-2.957-.929-3.57-1.1-1.655-.45-4.38-1.278-5.317-2.864a8.449,8.449,0,0,1-1.163-3.1c.05-.728.795-1.18,1.449-1.506q-.313-.176-.616-.371a10.916,10.916,0,0,1-2.9-2.747.378.378,0,0,1-.1-.272C2054.8,236.515,2055.108,236.512,2055.315,236.568Z" fill="#ffcdbb"/>
    <path id="Path_143919" data-name="Path 143919" d="M2092.575,261.58a204.614,204.614,0,0,0-18.608-14.494l-3.757,5.649a81.473,81.473,0,0,0,19.348,23.731l22-11.538a15.243,15.243,0,0,0,5.127-3.68c2.323-2.939,2.166-7.064,1.9-10.8a4.132,4.132,0,0,0-.513-2.051C2114.978,243.8,2095.613,259.511,2092.575,261.58Z" fill="#3f3f3f"/>
    <path id="Path_143920" data-name="Path 143920" d="M1778.267,446.566a58.869,58.869,0,0,1,.772,10.582c-.075,3.917-.369,7.038-.369,7.038-.5,5.3-1.12,6.557-.328,8.267,1.076,2.324,3.637,3.054,4.791,3.383,2.326.663,2.76-.284,5.272.433,1.794.512,1.684,1.026,4.417,2.136a25.652,25.652,0,0,0,4.537,1.359,13.491,13.491,0,0,0,4.585.516c1.831-.194,4.609-1.037,4.7-2.391.052-.756-.74-1.554-1.307-1.9a2.555,2.555,0,0,0-1.607-.34c-2.665.217-5.6-5.711-11.315-10.751a9.376,9.376,0,0,1-2.132-2.371,13.117,13.117,0,0,1-1.571-6.463c-.2-3.972-.3-7.556-.341-10.7-1.552.048-3.206.162-4.947.365C1781.589,445.945,1779.867,446.234,1778.267,446.566Z" fill="#3f3f3f"/>
    <path id="Path_143921" data-name="Path 143921" d="M1778.636,462.718c-.131.33-.27.7-.413,1.1a29.6,29.6,0,0,0-1.191,4.3c-.434,2.393-.682,3.759-.194,5.043.2.536.76,1.645,5.033,3.356a45.049,45.049,0,0,0,6.226,1.919c4.358,1.086,3.872.673,6.691,1.481,2.66.763,3.741,1.315,5.922,1.346a8.975,8.975,0,0,0,3.615-.6c1.185-.477,3.29-1.325,3.615-3.082.331-1.79-1.352-3.614-2.454-4.808-2.256-2.445-4.229-3.086-6.971-4.571a42.031,42.031,0,0,1-6.777-4.606,13.632,13.632,0,0,0-3.356,2.014c-1.893,1.537-2.159,2.555-3.287,2.679-1.186.13-2.169-.854-4.029-2.715A23.688,23.688,0,0,1,1778.636,462.718Z" fill="#2d2a26"/>
    <path id="Path_143922" data-name="Path 143922" d="M1817.73,443.12c.855,4.43-.125,9.907-.1,12.416.042,3.916-.158,7.046-.158,7.046-.339,5.317-.923,6.6-.08,8.272,1.147,2.278,3.729,2.9,4.892,3.184,2.346.567,2.751-.4,5.283.217,1.809.438,1.715.955,4.481,1.952a25.509,25.509,0,0,0,4.576,1.173,13.488,13.488,0,0,0,4.6.327c1.824-.269,4.576-1.225,4.627-2.582.028-.757-.788-1.522-1.364-1.844a2.541,2.541,0,0,0-1.617-.274c-2.658.326-5.773-5.476-11.636-10.277a9.221,9.221,0,0,1-2.2-2.281,13,13,0,0,1-1.765-6.393c-.322-3.96-.529-7.536-.663-10.673-1.55.112-3.2.293-4.935.568C1819.844,444.239,1819.319,442.723,1817.73,443.12Z" fill="#3f3f3f"/>
    <path id="Path_143923" data-name="Path 143923" d="M1817.4,461.117c-.122.335-.25.708-.38,1.116a29.7,29.7,0,0,0-1.061,4.348c-.362,2.408-.569,3.783-.042,5.046.219.527.808,1.612,5.132,3.146a44.6,44.6,0,0,0,6.282,1.662c4.39.906,3.891.514,6.734,1.206,2.681.652,3.779,1.16,5.961,1.1a9.046,9.046,0,0,0,3.6-.75c1.17-.525,3.249-1.458,3.521-3.228.277-1.8-1.461-3.555-2.6-4.7-2.329-2.35-4.321-2.909-7.107-4.28a41.457,41.457,0,0,1-6.914-4.324,13.823,13.823,0,0,0-3.294,2.15c-1.846,1.613-2.082,2.641-3.206,2.811-1.181.179-2.194-.764-4.109-2.547A23.463,23.463,0,0,1,1817.4,461.117Z" fill="#2d2a26"/>
    <rect id="Rectangle_31434" data-name="Rectangle 31434" width="36.671" height="50.233" transform="translate(1877.101 415.526)" fill="#7986cb"/>
    <rect id="Rectangle_31435" data-name="Rectangle 31435" width="36.671" height="89.521" transform="translate(1929.101 376.232)" fill="#ffca28"/>
    <rect id="Rectangle_31436" data-name="Rectangle 31436" width="36.671" height="136.264" transform="translate(1983.301 329.453)" fill="#e57373"/>
    <g id="Group_47292" data-name="Group 47292">
      <path id="Path_143924" data-name="Path 143924" d="M1782.52,306.83s-7.193,114.684-6.728,146.12h17.775s15.189-102.834,14.528-111.862c0,0,5.371,80.052,5.477,111.862l14.863-.936s9.356-110.4,0-146.887Z" fill="#273680"/>
      <path id="Path_143925" data-name="Path 143925" d="M1808.685,238.672s.6,9.567-16.355.644h-2.491l-10.817,32.81,11.75,40.694s17.6,6.491,33.08,0l-8.614-67.407Z" fill="#e0e0e0"/>
      <g id="Group_47287" data-name="Group 47287">
        <path id="Path_143926" data-name="Path 143926" d="M1807.276,229.234s.955,5.476,1.533,10.512h0c-1.876,8.655-16.479-.43-16.479-.43s.91-8.541,1.065-12.664Z" fill="url(#linear-gradient)"/>
        <path id="Path_143927" data-name="Path 143927" d="M1802.112,233.247c-2.842-1.719-8.714-5.359-9.985-8.5-1.983-4.9-1.174-9.016-.369-14.287,1.38-9.606,12.112-8.582,12.112-8.582,10.984,1.57,12.169,18.743,12.174,18.808a13.5,13.5,0,0,1-3.251,10.221C1809.481,234.771,1806.45,235.871,1802.112,233.247Z" fill="#ffc1af"/>
        <g id="Group_47284" data-name="Group 47284">
          <ellipse id="Ellipse_9160" data-name="Ellipse 9160" cx="2.685" cy="3.507" rx="2.685" ry="3.507" transform="translate(1804.29 214.19) rotate(-16.274)" fill="#cfcfcf"/>
          <path id="Path_143928" data-name="Path 143928" d="M1808.919,220.466c1.584-.462,2.394-2.481,1.8-4.5a4.4,4.4,0,0,0-1.563-2.322,2.7,2.7,0,0,0-2.379-.5c-1.585.462-2.394,2.482-1.805,4.5a4.4,4.4,0,0,0,1.564,2.322,2.877,2.877,0,0,0,1.7.6A2.418,2.418,0,0,0,1808.919,220.466Zm-.124-6.325a3.776,3.776,0,0,1,1.336,2c.494,1.693-.127,3.369-1.385,3.736a2.1,2.1,0,0,1-1.841-.406,3.773,3.773,0,0,1-1.336-2c-.495-1.693.127-3.369,1.384-3.736a1.789,1.789,0,0,1,.5-.071A2.271,2.271,0,0,1,1808.8,214.141Z" fill="#282828"/>
        </g>
        <g id="Group_47285" data-name="Group 47285">
          <ellipse id="Ellipse_9161" data-name="Ellipse 9161" cx="2.146" cy="3.388" rx="2.146" ry="3.388" transform="matrix(0.973, -0.229, 0.229, 0.973, 1811.089, 211.163)" fill="#cfcfcf"/>
          <path id="Path_143929" data-name="Path 143929" d="M1814.8,217.568a2.148,2.148,0,0,0,1.472-1.512,4.835,4.835,0,0,0,.072-2.648c-.474-2.018-1.9-3.351-3.235-3.037s-2.018,2.143-1.544,4.161a4.841,4.841,0,0,0,1.244,2.338,2.321,2.321,0,0,0,1.6.744A1.688,1.688,0,0,0,1814.8,217.568Zm.944-4.018h0a4.219,4.219,0,0,1-.055,2.3,1.356,1.356,0,0,1-2.448.575,4.222,4.222,0,0,1-1.076-2.038c-.382-1.626.115-3.191,1.085-3.419a1.07,1.07,0,0,1,.245-.028C1814.4,210.944,1815.393,212.06,1815.743,213.55Z" fill="#282828"/>
        </g>
        <g id="Group_47286" data-name="Group 47286">
          <line id="Line_4365" data-name="Line 4365" y1="0.825" x2="1.671" transform="translate(1810.309 214.877)" fill="#cfcfcf"/>
          <rect id="Rectangle_32121" data-name="Rectangle 32121" width="1.863" height="0.617" transform="translate(1810.173 215.426) rotate(-26.284)" fill="#282828"/>
        </g>
        <path id="Path_143930" data-name="Path 143930" d="M1797.808,219.157l-.1-.191a3.417,3.417,0,0,0-1.825-1.645,1.976,1.976,0,0,0-1.651.444l-.367-.5a2.559,2.559,0,0,1,2.163-.547,3.781,3.781,0,0,1,2.125,1.777l7.246-.784.066.613Z" fill="#282828"/>
        <path id="Path_143931" data-name="Path 143931" d="M1793.431,220.868c2.671,3.636,6.489,2.464,4.185-2.517-1.061-2.295-4.031-2.324-4.749-.338A3.268,3.268,0,0,0,1793.431,220.868Z" fill="#ffc1af"/>
        <path id="Path_143932" data-name="Path 143932" d="M1808.826,226.09a2.026,2.026,0,0,1,1.28-2.213c1.722-.593,4.592-1.782,4.592-1.782s.948-.4.983,1.307a32.02,32.02,0,0,1-.385,4.371s-.116-4.517-2.221-3.671a9.648,9.648,0,0,0-2.112,1.163s-.994.825-.823,4.25c.041.809-.875.36-.839.611Z" fill="#3f3f3f"/>
      </g>
      <g id="Group_47289" data-name="Group 47289">
        <g id="Group_47288" data-name="Group 47288">
          <path id="Path_143933" data-name="Path 143933" d="M1884.209,266.506c.456-.28,3.045-1.855,3-.222a1.053,1.053,0,0,1-.5.73c-1.69,1.323-2.71,1.611-4.321,3.029a.738.738,0,0,0-.317.511.552.552,0,0,0,.447.487,1.416,1.416,0,0,0,.688-.061c2.707-.721,7.278-3.178,10.065-3.544.308-.04.732.015.783.328.039.234-.18.413-.377.533-1.834,1.116-6.045,2.818-7.626,4.272.321.463,1,.429,1.522.274.879-.258,1.766-.245,2.67-.424a19.94,19.94,0,0,1,4.261-.681c.373.007.882.216.8.58-.045.187-.238.287-.414.358-.654.263-1.8.665-2.459.9-3.655,1.3-6.719,2.973-10.538,3.728a9.868,9.868,0,0,1-5.541-.9c-1.736-.79-5.515-3.68-3.945-4.567C1875.627,270.021,1881.074,268.43,1884.209,266.506Z" fill="#ffc1af"/>
        </g>
        <path id="Path_143934" data-name="Path 143934" d="M1890.024,279.47a.836.836,0,0,0-.209-.816c-.565-.558-4.543-.739-5.277-.946-2.4-.68-3.057-1.734-5.461-2.414-1.855-.524-4.067-1.444-4.333-3.4-.1-.748,1.384-6.252,1.218-6.989l-.006-.022a1.021,1.021,0,0,0-1.92-.127,32.639,32.639,0,0,1-7.259,10.936l4.94,6.757c1.543-.762,5.076-2.646,6.194-2.626a107.918,107.918,0,0,0,11.461,0,.93.93,0,0,0,.469-.116A.469.469,0,0,0,1890.024,279.47Z" fill="#ffc1af"/>
      </g>
      <path id="Path_143935" data-name="Path 143935" d="M1789.571,201.378c1.162-.564,2.529-.607,3.512-1.446a4.777,4.777,0,0,0,.526-.517s3.261-5.473,13.14-3.625a.862.862,0,0,0,.354-.007,8.776,8.776,0,0,0,3.264-1.463.876.876,0,0,1,1.217.088,4.746,4.746,0,0,1,1.13,3.671.879.879,0,0,0,.434.839c1.35.789,4.693,3.361,1.791,8.275a.874.874,0,0,1-.169.21,6.227,6.227,0,0,1-7.813.576.852.852,0,0,0-.077-.044c-.442-.216-4.416-2.014-6.566,1.965a.891.891,0,0,0,.092.985c.682.843,1.9,3.043.525,6.914a21.667,21.667,0,0,0,.021,6.045c1.006,3.137,4.256,4.556,5.478,4.948,2.993.96,3.518,1.485,5.94.617a6.8,6.8,0,0,0,2.29-1.4c.448-.448.5-1.615.617-2.119a7.672,7.672,0,0,0,.193-.895s.07,2.61.03,3.528a15.4,15.4,0,0,1-.122,3.727c-.609,2.219-1.927,2.6-3.82,3.176-2.693.82-2.946.551-5.911-.6a22.052,22.052,0,0,1-3.838-1.762,4.5,4.5,0,0,1-1.988-2.965c-.105-.833-1.577-8.333-1.274-8.919.011-.022-1.308-4.02-2.877-4.267,0,0-1.855-.089-2.385.883a4.215,4.215,0,0,0,1.183,4.667.854.854,0,0,1,.285.711,17.735,17.735,0,0,0,.127,4.158.874.874,0,0,1-.744,1.071c-1.966.237-6.174-.3-9.872-7.788a12.975,12.975,0,0,1-1.088-4.205C1782.962,213.411,1783.135,204.506,1789.571,201.378Z" fill="#3f3f3f"/>
      <path id="Path_143936" data-name="Path 143936" d="M1775.325,349.887a2.628,2.628,0,0,1-2.482-.619c-1.532-1.476-3.192-5.632-.64-17.329,0,0,4.327-18.808,3.495-27.13l18.641-3.328s1.665,27.629-9.015,42.442C1785.324,343.923,1782.666,347.962,1775.325,349.887Z" fill="url(#linear-gradient-2)"/>
      <path id="Path_143937" data-name="Path 143937" d="M1808.681,238.672s12.276,27.524,12.942,77.788c0,0,3.314,25.7,10.554,27.026,0,0,3.453-7.376,1.872-14.033l-1.872-31.81s-.734,6.834,11.749.675L1873.667,282s-3.915-4.58-4.816-9.932c0,0-17.934,7.043-23.581,9.868a3.821,3.821,0,0,1-4.352-.59,10.709,10.709,0,0,1-1.652-3.163s-11.152-29.293-18.808-35.285A78.367,78.367,0,0,0,1808.681,238.672Z" fill="#7180c1"/>
      <path id="Path_143938" data-name="Path 143938" d="M1789.839,239.316s-25.958,2-27.706,34.453c0,0,1.92,50.615,32.564,30.983q.927-.593,1.889-1.274l29.959-23.468s-2.58-7.323-7.24-9.9c0,0-19.654,14.6-26.2,14.782C1793.1,284.889,1795.582,255.793,1789.839,239.316Z" fill="#7180c1"/>
      <g id="Group_47291" data-name="Group 47291">
        <g id="Group_47290" data-name="Group 47290">
          <path id="Path_143939" data-name="Path 143939" d="M1836.949,261.154c.456-.28,3.045-1.855,3-.222a1.051,1.051,0,0,1-.5.73c-1.69,1.323-2.711,1.611-4.322,3.029a.741.741,0,0,0-.317.511.553.553,0,0,0,.447.487,1.415,1.415,0,0,0,.688-.061c2.707-.721,7.278-3.178,10.066-3.544.307-.04.732.015.783.328.038.234-.18.413-.377.533-1.835,1.116-6.045,2.818-7.626,4.272.32.464,1,.429,1.522.275.878-.259,1.765-.246,2.669-.425a19.96,19.96,0,0,1,4.262-.681c.373.007.881.216.8.58-.045.187-.238.288-.415.358-.653.263-1.795.665-2.459.9-3.654,1.3-6.719,2.973-10.538,3.728a9.864,9.864,0,0,1-5.54-.9c-1.737-.79-5.515-3.68-3.945-4.567C1828.366,264.669,1833.813,263.078,1836.949,261.154Z" fill="#ffc1af"/>
        </g>
        <path id="Path_143940" data-name="Path 143940" d="M1842.764,274.118a.837.837,0,0,0-.21-.816c-.565-.558-4.542-.739-5.277-.946-2.4-.68-3.057-1.734-5.46-2.414-1.856-.524-4.068-1.443-4.333-3.4-.1-.748,1.383-6.251,1.217-6.989l-.005-.022a1.021,1.021,0,0,0-1.921-.127,32.638,32.638,0,0,1-7.259,10.936l4.941,6.757c1.543-.762,5.076-2.646,6.194-2.626a107.907,107.907,0,0,0,11.46,0,.937.937,0,0,0,.469-.115A.484.484,0,0,0,1842.764,274.118Z" fill="#ffc1af"/>
      </g>
    </g>
    <path id="Path_143941" data-name="Path 143941" d="M2139.094,210.28a1.312,1.312,0,0,0-.542-1.639c-2.006-1.174-5.851-3.979-11.7-3.581-7.225.492-10.578,3.8-12.147,8.121-2.349,6.466-3.079,10.524-5.537,13.7-4.675,6.044-.874,8.3.247,11.645s-3.7,5.547-2.83,9.35c1.845,8.121,5.311,3.64,6.741,7.947s6.859,6.46,9.136,3.915,2.864-16.444,2.864-16.444Z" fill="#7c5442"/>
    <path id="Path_143942" data-name="Path 143942" d="M2132.29,419.408s6.534,37.767,6.592,40.839-1.114,8.292-3.9,10.846c-1.768,1.619,2.579,2.076,3.282,1.883s8.478-2.612,8.839-4.4-.789-5.776-.952-9.885a116.82,116.82,0,0,1-.065-12.734c.212-4.442-.434-25.424-1.228-31.3S2132.29,419.408,2132.29,419.408Z" fill="url(#linear-gradient-3)"/>
    <g id="Group_47293" data-name="Group 47293">
      <path id="Path_143943" data-name="Path 143943" d="M2149.782,470.909a26.965,26.965,0,0,1,.274,3.678,3.561,3.561,0,0,1-2.618,1.318c-1.473.023-2.915-.1-2.919-1.415a12.6,12.6,0,0,1,.631-3.195Z" fill="#283593"/>
      <path id="Path_143944" data-name="Path 143944" d="M2127.158,472.844c1.714-.533,5.8-1.48,8.34-2.822a3.689,3.689,0,0,0,.9-.69c3.91,1.395,7.679-.3,10.255-3.241a4.132,4.132,0,0,0,.808.7c3.136,2.113,2.523,4.727,1.707,5.265-3.529,2.323-5.917,1.793-7.616,2.932s-1.029,2.316-4.532,2.661c-5,.492-10.858-1-12.589-1.4S2125.445,473.378,2127.158,472.844Z" fill="#283593"/>
    </g>
    <path id="Path_143945" data-name="Path 143945" d="M2114.514,418.473s6.533,37.767,6.592,40.839-1.114,8.291-3.9,10.845c-1.768,1.62,2.579,2.077,3.282,1.883s8.478-2.612,8.839-4.4-.789-5.777-.952-9.885a116.767,116.767,0,0,1-.065-12.734c.212-4.442-.435-25.425-1.228-31.3S2114.514,418.473,2114.514,418.473Z" fill="url(#linear-gradient-3)"/>
    <g id="Group_47294" data-name="Group 47294">
      <path id="Path_143946" data-name="Path 143946" d="M2132.006,469.974a26.989,26.989,0,0,1,.274,3.677,3.558,3.558,0,0,1-2.618,1.318c-1.473.023-2.915-.1-2.919-1.415a12.6,12.6,0,0,1,.631-3.195Z" fill="#283593"/>
      <path id="Path_143947" data-name="Path 143947" d="M2109.382,471.909c1.714-.533,5.8-1.48,8.34-2.823a3.661,3.661,0,0,0,.9-.689c3.91,1.394,7.679-.3,10.255-3.242a4.162,4.162,0,0,0,.808.7c3.136,2.112,2.523,4.727,1.707,5.265-3.529,2.323-5.917,1.793-7.616,2.931s-1.029,2.316-4.532,2.661c-5,.492-10.859-1-12.589-1.4S2107.668,472.442,2109.382,471.909Z" fill="#283593"/>
    </g>
    <path id="Path_143948" data-name="Path 143948" d="M2143.666,313.059c-1.245.559-24.249,2.833-31.822.858-2.684-.7-.369-11.7.015-13.466a45.785,45.785,0,0,0,.41-15.61c-.595-4.579-2.5-8.866-3-13.437-.835-7.614,2.768-18.395,9.381-22.747,5.47-3.6,11.722-5.262,18.241-3.932,15.06,3.073,6.991,27.758,6.652,32.577C2143.187,282.349,2145.361,312.3,2143.666,313.059Z" fill="#e0e0e0"/>
    <path id="Path_143949" data-name="Path 143949" d="M2129.966,249.8a5.589,5.589,0,0,1-4.271.03,5.988,5.988,0,0,1-3.232-4.311q0-5.548.008-11.1l8.245-1.233,3.237,11.405C2133.9,244.886,2133.183,248.528,2129.966,249.8Z" fill="url(#radial-gradient)"/>
    <g id="Group_47295" data-name="Group 47295">
      <path id="Path_143950" data-name="Path 143950" d="M2138.444,231.377c-2.781,6.357-6.7,9.336-10.482,10.433a12.554,12.554,0,0,1-7.938-.158,12.241,12.241,0,0,1-4.651-3.17c-2.544-2.842-2.28-9.843-1.521-13.662.971-4.888,1.908-9.613,6.086-12.056,4.781-2.8,10.394-.583,11.978-.012C2141.292,216.133,2141.9,223.471,2138.444,231.377Z" fill="#ffcdbb"/>
    </g>
    <path id="Path_143951" data-name="Path 143951" d="M2110.476,304.017c-1.84,2.769-13.583,61.772-19.646,99.2,8.615,13.4,28.4,24.25,49.549,19.3a51.038,51.038,0,0,0,31.782-22.351c-8.472-16.991-26.3-94.951-27.278-97.281-.564-1.346-1.118-.877-2.095-.5-4.976,1.92-20.021,4.426-27.529,2.479C2112.561,304.165,2110.981,303.256,2110.476,304.017Z" fill="#273680"/>
    <path id="Path_143952" data-name="Path 143952" d="M2131.333,316.649q.153,1.182.322,2.357,8.44-.729,16.844-1.827c-1.318-19.576-3.254-38.825-4.6-58.424-.263-3.842-.588-10.838-5.657-11.373-4.671-.494-6.568,4.237-6.951,7.945C2129.221,275.381,2128.726,296.594,2131.333,316.649Z" fill="#3f3f3f"/>
    <path id="Path_143953" data-name="Path 143953" d="M2152.374,255.3c14.419,16.963,24.7,25.662,21.724,32.828-1.568,3.776-24.342,27.693-25.551,29.122s.729,7.048-.354,9.58-1.2,6.337-3.663,7.341c-2.544,1.036-2.913-4.389-2.122-8.692s-.293-4.392-1.357-2.077-.725-1.807.5-6.074,2.518-3.7,3.489-5.051,11.271-21.532,17.905-27.48c-8.684-6.728-14.462-11.461-19.96-17.088-3.475-3.556-7.441-11.235-3.86-14.283S2147.7,249.8,2152.374,255.3Z" fill="#ffcdbb"/>
    <path id="Path_143954" data-name="Path 143954" d="M2170.934,276.181c2.16,2.837,4.351,6.08,4.036,9.632-.23,2.587-1.765,4.85-3.268,6.968q-8.857,12.479-18.584,24.309l-7.045-5.688a1.871,1.871,0,0,1-.438-3.164c5.554-7.4,9.552-15.75,14.425-23.572a83.088,83.088,0,0,0-13.34-13.294,17.963,17.963,0,0,1-3.544-3.306c-3.781-5.2-1.175-22.776,7.222-15.061A176.427,176.427,0,0,1,2170.934,276.181Z" fill="#3f3f3f"/>
    <path id="Path_143955" data-name="Path 143955" d="M2130.235,205.022c14.107-.161,17.018,9.692,16.626,14.586s-.2,9.783,4.5,16.8,1.995,12.37-2.414,14.719c-3,1.6-2.25,3.635-2.054,9.7s-7.7,11.247-14.717,6.544c-2.84-1.9-5.458-4.525-2.073-10.707,3.29-6.008,7.946-7.695,1.094-14.284-2.353-2.262-.759-5.792,2.753-9.879s2.36-9.96,0-12.113-8.626-8.026-8.626-9.984S2127.884,205.049,2130.235,205.022Z" fill="#7c5442"/>
  </g>
</svg>
