<svg xmlns="http://www.w3.org/2000/svg" width="300" height="180" viewBox="0 0 300 180">
  <path fill="#FF59AC" fill-rule="nonzero" d="M228 156C228.552285 156 229 155.552285 229 155 229 154.447715 228.552285 154 228 154 227.447715 154 227 154.447715 227 155 227 155.552285 227.447715 156 228 156zM228 157C226.895431 157 226 156.104569 226 155 226 153.895431 226.895431 153 228 153 229.104569 153 230 153.895431 230 155 230 156.104569 229.104569 157 228 157zM233 72C233.552285 72 234 71.5522847 234 71 234 70.4477153 233.552285 70 233 70 232.447715 70 232 70.4477153 232 71 232 71.5522847 232.447715 72 233 72zM233 73C231.895431 73 231 72.1045695 231 71 231 69.8954305 231.895431 69 233 69 234.104569 69 235 69.8954305 235 71 235 72.1045695 234.104569 73 233 73zM80 142C80.5522847 142 81 141.552285 81 141 81 140.447715 80.5522847 140 80 140 79.4477153 140 79 140.447715 79 141 79 141.552285 79.4477153 142 80 142zM80 143C78.8954305 143 78 142.104569 78 141 78 139.895431 78.8954305 139 80 139 81.1045695 139 82 139.895431 82 141 82 142.104569 81.1045695 143 80 143z"/>
  <polygon fill="#FF59AC" points="238 142 238 140 239 140 239 142 241 142 241 143 239 143 239 145 238 145 238 143 236 143 236 142"/>
  <path fill="#FF59AC" fill-rule="nonzero" d="M74,35 C74.5522847,35 75,34.5522847 75,34 C75,33.4477153 74.5522847,33 74,33 C73.4477153,33 73,33.4477153 73,34 C73,34.5522847 73.4477153,35 74,35 Z M74,36 C72.8954305,36 72,35.1045695 72,34 C72,32.8954305 72.8954305,32 74,32 C75.1045695,32 76,32.8954305 76,34 C76,35.1045695 75.1045695,36 74,36 Z"/>
  <path fill="#FF59AC" fill-rule="nonzero" d="M91.8062676 17.1937324C92.0645775 17.4520422 92.0645775 17.8708451 91.8062676 18.1291549L90.4031338 19.5322887C90.144824 19.7905985 89.7260211 19.7905985 89.4677113 19.5322887 89.2094015 19.2739789 89.2094015 18.855176 89.4677113 18.5968662L90.8708451 17.1937324C91.1291549 16.9354225 91.5479578 16.9354225 91.8062676 17.1937324L91.8062676 17.1937324zM88.5322887 20.4677113C88.7905985 20.7260211 88.7905985 21.144824 88.5322887 21.4031338L87.1291549 22.8062676C86.8708451 23.0645775 86.4520422 23.0645775 86.1937324 22.8062676 85.9354225 22.5479578 85.9354225 22.1291549 86.1937324 21.8708451L87.5968662 20.4677113C87.855176 20.2094015 88.2739789 20.2094015 88.5322887 20.4677113zM91.8062676 22.8062676C91.5479578 23.0645775 91.1291549 23.0645775 90.8708451 22.8062676L89.4677113 21.4031338C89.2094015 21.144824 89.2094015 20.7260211 89.4677113 20.4677113 89.7260211 20.2094015 90.144824 20.2094015 90.4031338 20.4677113L91.8062676 21.8708451C92.0645775 22.1291549 92.0645775 22.5479578 91.8062676 22.8062676zM88.5322887 19.5322887C88.2739789 19.7905985 87.855176 19.7905985 87.5968662 19.5322887L86.1937324 18.1291549C85.9354225 17.8708451 85.9354225 17.4520422 86.1937324 17.1937324 86.4520422 16.9354225 86.8708451 16.9354225 87.1291549 17.1937324L88.5322887 18.5968662C88.7905985 18.855176 88.7905985 19.2739789 88.5322887 19.5322887zM73.8062676 119.193732C74.0645775 119.452042 74.0645775 119.870845 73.8062676 120.129155L72.4031338 121.532289C72.144824 121.790599 71.7260211 121.790599 71.4677113 121.532289 71.2094015 121.273979 71.2094015 120.855176 71.4677113 120.596866L72.8708451 119.193732C73.1291549 118.935423 73.5479578 118.935423 73.8062676 119.193732L73.8062676 119.193732zM70.5322887 122.467711C70.7905985 122.726021 70.7905985 123.144824 70.5322887 123.403134L69.1291549 124.806268C68.8708451 125.064577 68.4520422 125.064577 68.1937324 124.806268 67.9354225 124.547958 67.9354225 124.129155 68.1937324 123.870845L69.5968662 122.467711C69.855176 122.209401 70.2739789 122.209401 70.5322887 122.467711zM73.8062676 124.806268C73.5479578 125.064577 73.1291549 125.064577 72.8708451 124.806268L71.4677113 123.403134C71.2094015 123.144824 71.2094015 122.726021 71.4677113 122.467711 71.7260211 122.209401 72.144824 122.209401 72.4031338 122.467711L73.8062676 123.870845C74.0645775 124.129155 74.0645775 124.547958 73.8062676 124.806268zM70.5322887 121.532289C70.2739789 121.790599 69.855176 121.790599 69.5968662 121.532289L68.1937324 120.129155C67.9354225 119.870845 67.9354225 119.452042 68.1937324 119.193732 68.4520422 118.935423 68.8708451 118.935423 69.1291549 119.193732L70.5322887 120.596866C70.7905985 120.855176 70.7905985 121.273979 70.5322887 121.532289z"/>
  <path fill="#CC478A" d="M119,14 L211,14 C212.104569,14 213,14.8954305 213,16 L213,138.000073 C213,139.104642 212.104569,140.000073 211,140.000073 L119,140.000073 C117.895431,140.000073 117,139.104642 117,138.000073 L117,16 C117,14.8954305 117.895431,14 119,14 Z"/>
  <path fill="#FF59AC" d="M105,32 L175.000017,32 L199.000017,56 L199.000017,156.000125 C199.000017,157.104694 198.104587,158.000125 197.000017,158.000125 L105,158.000125 C103.895431,158.000125 103,157.104694 103,156.000125 L103,34 C103,32.8954305 103.895431,32 105,32 Z"/>
  <path fill="#FFFFFF" fill-rule="nonzero" d="M138.66941,77.4285714 C138.803344,71.093244 143.824941,66 150,66 C156.175059,66 161.196656,71.093244 161.33059,77.4285714 L165,77.4285714 C166.104569,77.4285714 167,78.3240019 167,79.4285714 L167,99 C167,100.104569 166.104569,101 165,101 L135,101 C133.895431,101 133,100.104569 133,99 L133,79.4285714 C133,78.3240019 133.895431,77.4285714 135,77.4285714 L138.66941,77.4285714 Z M141.5,77.4285714 L158.5,77.4285714 C158.5,72.6947021 154.69442,68.8571429 150,68.8571429 C145.30558,68.8571429 141.5,72.6947021 141.5,77.4285714 Z M150,83.1428571 C149.413197,83.1428571 148.9375,83.6185546 148.9375,84.2053571 L148.9375,92.7946429 C148.9375,93.3814454 149.413197,93.8571429 150,93.8571429 C150.586803,93.8571429 151.0625,93.3814454 151.0625,92.7946429 L151.0625,84.2053571 C151.0625,83.6185546 150.586803,83.1428571 150,83.1428571 Z"/>
  <path fill="#CC478A" fill-rule="nonzero" d="M93,109 L177,109 C179.209139,109 181,110.790861 181,113 L181,135 C181,137.209139 179.209139,139 177,139 L93,139 C90.790861,139 89,137.209139 89,135 L89,113 C89,110.790861 90.790861,109 93,109 Z"/>
  <path fill="#FFFFFF" fill-rule="nonzero" d="M93,111 C91.8954305,111 91,111.895431 91,113 L91,135 C91,136.104569 91.8954305,137 93,137 L177,137 C178.104569,137 179,136.104569 179,135 L179,113 C179,111.895431 178.104569,111 177,111 L93,111 Z M93,109 L177,109 C179.209139,109 181,110.790861 181,113 L181,135 C181,137.209139 179.209139,139 177,139 L93,139 C90.790861,139 89,137.209139 89,135 L89,113 C89,110.790861 90.790861,109 93,109 Z"/>
  <polygon fill="#FFFFFF" fill-rule="nonzero" points="100.553 130 98.515 128.435 100.262 125.151 97 123.555 97.786 121.008 101.311 121.744 101.718 118 104.282 118 104.689 121.775 108.214 121.008 109 123.555 105.709 125.151 107.485 128.435 105.447 130 103 127.207"/>
  <polygon fill="#FFFFFF" fill-rule="nonzero" points="132.553 130 130.515 128.435 132.262 125.151 129 123.555 129.786 121.008 133.311 121.744 133.718 118 136.282 118 136.689 121.775 140.214 121.008 141 123.555 137.709 125.151 139.485 128.435 137.447 130 135 127.207"/>
  <polygon fill="#FFFFFF" fill-rule="nonzero" points="148.553 130 146.515 128.435 148.262 125.151 145 123.555 145.786 121.008 149.311 121.744 149.718 118 152.282 118 152.689 121.775 156.214 121.008 157 123.555 153.709 125.151 155.485 128.435 153.447 130 151 127.207"/>
  <polygon fill="#FFFFFF" fill-rule="nonzero" points="164.553 130 162.515 128.435 164.262 125.151 161 123.555 161.786 121.008 165.311 121.744 165.718 118 168.282 118 168.689 121.775 172.214 121.008 173 123.555 169.709 125.151 171.485 128.435 169.447 130 167 127.207"/>
  <polygon fill="#FFFFFF" fill-rule="nonzero" points="116.553 130 114.515 128.435 116.262 125.151 113 123.555 113.786 121.008 117.311 121.744 117.718 118 120.282 118 120.689 121.775 124.214 121.008 125 123.555 121.709 125.151 123.485 128.435 121.447 130 119 127.207"/>
  <path fill="#FFFFFF" d="M175,32 L199,56 L176,56 C175.447715,56 175,55.5522847 175,55 L175,32 Z" opacity=".3"/>
</svg>