<svg xmlns="http://www.w3.org/2000/svg" viewBox="0 0 80 80"><defs><linearGradient id="linear-gradient" x1="10.31" y1="605.31" x2="69.29" y2="605.31" gradientTransform="translate(0 -528)" gradientUnits="userSpaceOnUse"><stop offset="0" stop-opacity="0"/><stop offset=".07" stop-opacity=".16"/><stop offset=".5" stop-opacity=".3"/><stop offset=".93" stop-opacity=".16"/><stop offset="1" stop-opacity="0"/></linearGradient><style>.cls-3{fill:#4b5ebf}</style></defs><g id="icons"><g id="Artwork"><path fill="url(#linear-gradient)" d="M10.31 76.49h58.98v1.64H10.31z"/><path d="M17 34.61h45.53a1.53 1.53 0 011.52 1.53v40a1.52 1.52 0 01-1.52 1.52H17a1.52 1.52 0 01-1.52-1.52V36.22a1.52 1.52 0 011.52-1.6z" fill="#8ed6f2"/><path class="cls-3" d="M57.54 34.61h-5.7v-14a12.14 12.14 0 00-24.27-.79v14.79H22v-14a17.75 17.75 0 1135.49-1zM21.56 53.36h.7v5.72h-.7z"/><path class="cls-3" d="M19.05 55.87h5.72v.7h-5.72z"/><path class="cls-3" transform="rotate(-45 21.921 56.23)" d="M19.06 55.88h5.72v.7h-5.72z"/><path class="cls-3" transform="rotate(-45 21.914 56.213)" d="M21.57 53.36h.7v5.72h-.7z"/><path class="cls-3" d="M28.72 53.36h.7v5.72h-.7z"/><path class="cls-3" d="M26.21 55.87h5.72v.7h-5.72z"/><path class="cls-3" transform="rotate(-45 29.067 56.22)" d="M26.21 55.87h5.72v.7h-5.72z"/><path class="cls-3" transform="rotate(-45 29.067 56.22)" d="M28.72 53.37h.7v5.72h-.7z"/><path class="cls-3" d="M35.86 53.36h.7v5.72h-.7z"/><path class="cls-3" d="M33.35 55.87h5.72v.7h-5.72z"/><path class="cls-3" transform="rotate(-45 36.22 56.227)" d="M33.36 55.88h5.72v.7h-5.72z"/><path class="cls-3" transform="rotate(-45 36.22 56.227)" d="M35.87 53.37h.7v5.72h-.7z"/><path class="cls-3" d="M43.02 53.36h.7v5.72h-.7z"/><path class="cls-3" d="M40.51 55.87h5.72v.7h-5.72z"/><path class="cls-3" transform="rotate(-45 43.366 56.217)" d="M40.51 55.87h5.72v.7h-5.72z"/><path class="cls-3" transform="rotate(-45 43.366 56.217)" d="M43.02 53.36h.7v5.72h-.7z"/><path class="cls-3" d="M50.15 53.36h.7v5.72h-.7z"/><path class="cls-3" d="M47.65 55.87h5.72v.7h-5.72z"/><path class="cls-3" transform="rotate(-45 50.502 56.231)" d="M47.65 55.88h5.72v.7h-5.72z"/><path class="cls-3" transform="rotate(-45 50.502 56.231)" d="M50.15 53.37h.7v5.72h-.7z"/><path class="cls-3" d="M57.31 53.36h.7v5.72h-.7z"/><path class="cls-3" d="M54.81 55.87h5.72v.7h-5.72z"/><path class="cls-3" transform="rotate(-45 57.677 56.22)" d="M54.81 55.87h5.72v.7h-5.72z"/><path class="cls-3" transform="rotate(-45 57.677 56.22)" d="M57.32 53.36h.7v5.72h-.7z"/></g></g><path fill="none" d="M-.31-.05h80.22v80.22H-.31z" id="frames"/></svg>