<svg xmlns="http://www.w3.org/2000/svg" xmlns:xlink="http://www.w3.org/1999/xlink" width="360" height="192"><defs><linearGradient id="a" data-name="Linear ground shadow - light-B" x1="234" y1="182" x2="286" y2="182" gradientUnits="userSpaceOnUse"><stop offset="0" stop-color="#bdc1c6" stop-opacity="0"/><stop offset=".137" stop-color="#bdc1c6" stop-opacity=".021"/><stop offset=".279" stop-color="#bdc1c6" stop-opacity=".084"/><stop offset=".424" stop-color="#bdc1c6" stop-opacity=".189"/><stop offset=".57" stop-color="#bdc1c6" stop-opacity=".336"/><stop offset=".718" stop-color="#bdc1c6" stop-opacity=".525"/><stop offset=".864" stop-color="#bdc1c6" stop-opacity=".753"/><stop offset="1" stop-color="#bdc1c6"/></linearGradient><linearGradient id="c" x1="82" y1="182" x2="234" y2="182" xlink:href="#a"/><linearGradient id="d" x1="211.321" y1="52.162" x2="193.741" y2="69.741" gradientUnits="userSpaceOnUse"><stop offset="0" stop-color="#5f6368"/><stop offset=".362" stop-color="#5c6065"/><stop offset=".652" stop-color="#53575b"/><stop offset=".917" stop-color="#43474a"/><stop offset="1" stop-color="#3c4043"/></linearGradient><linearGradient id="e" x1="268" y1="173" x2="304" y2="173" gradientUnits="userSpaceOnUse"><stop offset="0" stop-color="#3c4043"/><stop offset=".093" stop-color="#44484b"/><stop offset=".346" stop-color="#53575b"/><stop offset=".628" stop-color="#5c6065"/><stop offset="1" stop-color="#5f6368"/></linearGradient><linearGradient id="b" x1="233" y1="106" x2="233" y2="166" gradientUnits="userSpaceOnUse"><stop offset="0" stop-color="#80868b"/><stop offset=".444" stop-color="#7e8489"/><stop offset=".694" stop-color="#767b80"/><stop offset=".896" stop-color="#696e73"/><stop offset="1" stop-color="#5f6368"/></linearGradient><linearGradient id="f" x1="211" y1="110" x2="211" y2="106" gradientUnits="userSpaceOnUse"><stop offset="0" stop-color="#f29900"/><stop offset="1" stop-color="#fbbc04"/></linearGradient><linearGradient id="g" x1="273.241" y1="137.3" x2="231.27" y2="179.27" xlink:href="#b"/><clipPath id="h"><path fill="none" d="M178 22h52v41h-52z"/></clipPath></defs><path fill="url(#a)" d="M234 180h52v4h-52z"/><path fill="url(#c)" d="M82 180h152v4H82z"/><path fill="#80868b" d="M194 70h38v10h-38z"/><path d="M199.062 42a5.062 5.062 0 014.395 2.55L218 70h-24V47.062A5.062 5.062 0 01199.062 42z" fill="url(#d)"/><path d="M219 50l-11 20h24V54a4 4 0 00-4-4z" fill="#80868b"/><path fill="#f28b82" d="M213 70l11-20h3v20h-14z"/><path d="M286 184a18.02 18.02 0 01-18-18 4 4 0 018 0 10 10 0 0020 0 4 4 0 018 0 18.02 18.02 0 01-18 18z" fill="url(#e)"/><path fill="#5f6368" d="M208 178h-18v-52h24l-6 52z"/><path d="M208 177.98c0 6.616-6.268 6.006-14 6.006s-14 .61-14-6.006S186.268 166 194 166s14 5.363 14 11.98z" fill="#dadce0"/><path d="M211 56a21 21 0 0121 21v29h-42V77a21 21 0 0121-21z" fill="#80868b"/><path d="M276 166h-46a40 40 0 01-40-40v-20h42v2a18 18 0 0018 18h2a24 24 0 0124 24z" fill="url(#b)"/><path d="M190 110v16a39.828 39.828 0 009 25.273V119a9 9 0 00-9-9z" fill="#e8eaed"/><rect x="187" y="106" width="48" height="4" rx="2" fill="url(#f)"/><path fill="#80868b" d="M217 178h-18v-52h24l-6 52z"/><path fill="#202124" d="M138 172h2v12h-2zm2 0a6 6 0 016 6 6 6 0 01-6 6v-12z"/><path d="M133 174h5v2h-5a1 1 0 01-1-1 1 1 0 011-1zm0 6h5v2h-5a1 1 0 01-1-1 1 1 0 011-1z" fill="#dadce0"/><path fill="#202124" d="M143 175h6v6h-6z"/><path d="M208 128v-16a18 18 0 00-18-18h0a18 18 0 00-18 18v54a12 12 0 01-12 12h-11" fill="none" stroke="#202124" stroke-miterlimit="10" stroke-width="2"/><path fill="#dadce0" d="M207 128h2v6h-2z"/><circle cx="185" cy="89" r="9" fill="#e8eaed"/><circle cx="195" cy="89" r="9" fill="#e8eaed"/><path fill="#e8eaed" d="M190 73h28v9h-28z"/><circle cx="199" cy="73" r="9" fill="#e8eaed"/><circle cx="209" cy="73" r="9" fill="#e8eaed"/><circle cx="206" cy="75" r="2" fill="#202124"/><circle cx="194" cy="75" r="2" fill="#202124"/><path d="M194 81.2a5.004 5.004 0 01-10 0c0-2.651 2.239-3.2 5-3.2s5 .549 5 3.2z" fill="#202124"/><path d="M195 82h23a16 16 0 01-16 16h-7V82z" fill="#e8eaed"/><path d="M188 85h2v6a1 1 0 01-1 1 1 1 0 01-1-1v-6z" fill="#202124"/><path d="M217 177.98c0 6.616-6.268 6.006-14 6.006s-14 .61-14-6.006S195.268 166 203 166s14 5.363 14 11.98z" fill="#e8eaed"/><path d="M250.47 126.047A23.997 23.997 0 00236 167.885V184h28a12 12 0 0012-12v-22a24.002 24.002 0 00-25.53-23.953z" fill="url(#g)"/><path d="M246 177.98c0 6.616-3.298 6.006-11.375 6.006S220 184.596 220 177.98 226.548 166 234.625 166 246 171.363 246 177.98z" fill="#e8eaed"/><path fill="#f8f9fa" stroke="#e8eaed" stroke-miterlimit="10" stroke-width="2" d="M56 121h52v30H56z"/><path fill="#fff" d="M63.75 128.75h14.5v14.5h-14.5z"/><path d="M77.5 129.5v13h-13v-13h13M79 128H63v16h16v-16z" fill="#e8eaed"/><g fill="#e8eaed"><circle cx="71" cy="139" r="1.25"/><rect x="67" y="132" width="1.5" height="4" rx=".75"/><rect x="73.5" y="132" width="1.5" height="4" rx=".75"/></g><path fill="#fff" d="M85.75 128.75h14.5v14.5h-14.5z"/><path d="M99.5 129.5v13h-13v-13h13m1.5-1.5H85v16h16v-16z" fill="#e8eaed"/><g fill="#e8eaed"><circle cx="93" cy="139" r="1.25"/><rect x="89" y="132" width="1.5" height="4" rx=".75"/><rect x="95.5" y="132" width="1.5" height="4" rx=".75"/></g><path d="M96 95h-5v-9l-7 13h5v9l7-13zM76 69h-3v-7l-5 9h3v7l5-9zm15-26h-3v-5l-4 7h3v5l4-7z" fill="#fbbc04"/><path fill="none" d="M0 0h360v192H0z"/><path d="M227.056 60a4.944 4.944 0 01-4.423-2.733L219 50h9a4 4 0 014 4v1.056A4.944 4.944 0 01227.056 60z" fill="#5f6368"/><g clip-path="url(#h)"><path fill="#fbbc04" d="M186.938 47.232L179.01 49.5l5.928-5.732 2 3.464z"/><g fill="none" stroke="#fbbc04" stroke-miterlimit="10" stroke-width="1.5"><path d="M199 61v-.5a2.5 2.5 0 012.5-2.5h3.5" stroke-linecap="round"/><path d="M202.4 58l3.6-9"/></g><g fill="none" stroke="#fbbc04" stroke-miterlimit="10" stroke-width="1.5"><path d="M209 59v-.5a2.5 2.5 0 012.5-2.5h3.5" stroke-linecap="round"/><path d="M212.4 56l3.6-9"/></g><path d="M223.96 25.355L223.177 24l-24.254 14.003a8.001 8.001 0 10-3.86 11.384 3.847 3.847 0 013.594.339 17.974 17.974 0 0019.765.084c8.08-5.254 10.357-16.108 5.538-24.455z" fill="#aecbfa"/><path d="M226.641 22a16 16 0 01-27.713 16z" fill="#4285f4"/><circle cx="188.5" cy="42.5" r="1.5" fill="#202124"/></g></svg>