<?xml version="1.0" encoding="UTF-8"?> <svg xmlns="http://www.w3.org/2000/svg" xmlns:xlink="http://www.w3.org/1999/xlink" width="1600px" height="1200px" viewBox="0 0 1600 1200"><!-- Generator: Sketch 61 (89581) - https://sketch.com --><title>Statistic</title><desc>Created with Sketch.</desc><g id="Statistic" stroke="none" stroke-width="1" fill="none" fill-rule="evenodd"><g id="Ornament" transform="translate(197.000000, 280.000000)"><path d="M850,620 L1145.05951,620 C1227.86936,620 1295,687.157288 1295,770 L999.940492,770 C917.130645,770 850,702.842712 850,620 Z" id="Shape" fill="#EBF0FF"></path><path d="M193,100 C193,44.771525 237.771525,0 293,0 L491,0 C491,55.228475 446.228475,100 391,100 L193,100 Z" id="Shape" fill="#EBF0FF"></path><path d="M217,770.153791 L5.81212045e-15,770.153791 L5.81212045e-15,770.153791 C5.81212045e-15,709.954753 48.5771046,661.153791 108.5,661.153791 C168.422895,661.153791 217,709.954753 217,770.153791 Z" id="Shape" fill="#4B91FC"></path><path d="M1076.81761,142.579399 C1076.81761,145.01417 1074.84372,146.987942 1072.40881,146.987942 C1069.97389,146.987942 1068,145.01417 1068,142.579399 C1068,140.144628 1069.97389,138.170856 1072.40881,138.170856 C1074.84372,138.170856 1076.81761,140.144628 1076.81761,142.579399 Z M1076.81761,124.945228 C1076.81761,127.379999 1074.84372,129.353771 1072.40881,129.353771 C1069.97389,129.353771 1068,127.379999 1068,124.945228 C1068,122.510457 1069.97389,120.536685 1072.40881,120.536685 C1074.84372,120.536685 1076.81761,122.510457 1076.81761,124.945228 Z M1076.81761,107.311057 C1076.81761,109.745828 1074.84372,111.719599 1072.40881,111.719599 C1069.97389,111.719599 1068,109.745828 1068,107.311057 C1068,104.876286 1069.97389,102.902514 1072.40881,102.902514 C1074.84372,102.902514 1076.81761,104.876286 1076.81761,107.311057 Z M1076.81761,89.6768854 C1076.81761,92.1116563 1074.84372,94.0854282 1072.40881,94.0854282 C1069.97389,94.0854282 1068,92.1116563 1068,89.6768854 C1068,87.2421144 1069.97389,85.2683425 1072.40881,85.2683425 C1074.84372,85.2683425 1076.81761,87.2421144 1076.81761,89.6768854 Z M1076.81761,72.0427141 C1076.81761,74.4774851 1074.84372,76.4512569 1072.40881,76.4512569 C1069.97389,76.4512569 1068,74.4774851 1068,72.0427141 C1068,69.6079431 1069.97389,67.6341713 1072.40881,67.6341713 C1074.84372,67.6341713 1076.81761,69.6079431 1076.81761,72.0427141 Z M1076.81761,54.4085428 C1076.81761,56.8433138 1074.84372,58.8170856 1072.40881,58.8170856 C1069.97389,58.8170856 1068,56.8433138 1068,54.4085428 C1068,51.9737719 1069.97389,50 1072.40881,50 C1074.84372,50 1076.81761,51.9737719 1076.81761,54.4085428 Z M1094.45284,142.579399 C1094.45284,145.01417 1092.47895,146.987942 1090.04404,146.987942 C1087.60912,146.987942 1085.63523,145.01417 1085.63523,142.579399 C1085.63523,140.144628 1087.60912,138.170856 1090.04404,138.170856 C1092.47895,138.170856 1094.45284,140.144628 1094.45284,142.579399 Z M1094.45284,124.945228 C1094.45284,127.379999 1092.47895,129.353771 1090.04404,129.353771 C1087.60912,129.353771 1085.63523,127.379999 1085.63523,124.945228 C1085.63523,122.510457 1087.60912,120.536685 1090.04404,120.536685 C1092.47895,120.536685 1094.45284,122.510457 1094.45284,124.945228 Z M1094.45284,107.311057 C1094.45284,109.745828 1092.47895,111.719599 1090.04404,111.719599 C1087.60912,111.719599 1085.63523,109.745828 1085.63523,107.311057 C1085.63523,104.876286 1087.60912,102.902514 1090.04404,102.902514 C1092.47895,102.902514 1094.45284,104.876286 1094.45284,107.311057 Z M1094.45284,89.6768854 C1094.45284,92.1116563 1092.47895,94.0854282 1090.04404,94.0854282 C1087.60912,94.0854282 1085.63523,92.1116563 1085.63523,89.6768854 C1085.63523,87.2421144 1087.60912,85.2683425 1090.04404,85.2683425 C1092.47895,85.2683425 1094.45284,87.2421144 1094.45284,89.6768854 Z M1094.45284,72.0427141 C1094.45284,74.4774851 1092.47895,76.4512569 1090.04404,76.4512569 C1087.60912,76.4512569 1085.63523,74.4774851 1085.63523,72.0427141 C1085.63523,69.6079431 1087.60912,67.6341713 1090.04404,67.6341713 C1092.47895,67.6341713 1094.45284,69.6079431 1094.45284,72.0427141 Z M1094.45284,54.4085428 C1094.45284,56.8433138 1092.47895,58.8170856 1090.04404,58.8170856 C1087.60912,58.8170856 1085.63523,56.8433138 1085.63523,54.4085428 C1085.63523,51.9737719 1087.60912,50 1090.04404,50 C1092.47895,50 1094.45284,51.9737719 1094.45284,54.4085428 Z M1112.08807,142.579399 C1112.08807,145.01417 1110.11418,146.987942 1107.67927,146.987942 C1105.24435,146.987942 1103.27046,145.01417 1103.27046,142.579399 C1103.27046,140.144628 1105.24435,138.170856 1107.67927,138.170856 C1110.11418,138.170856 1112.08807,140.144628 1112.08807,142.579399 Z M1112.08807,124.945228 C1112.08807,127.379999 1110.11418,129.353771 1107.67927,129.353771 C1105.24435,129.353771 1103.27046,127.379999 1103.27046,124.945228 C1103.27046,122.510457 1105.24435,120.536685 1107.67927,120.536685 C1110.11418,120.536685 1112.08807,122.510457 1112.08807,124.945228 Z M1112.08807,107.311057 C1112.08807,109.745828 1110.11418,111.719599 1107.67927,111.719599 C1105.24435,111.719599 1103.27046,109.745828 1103.27046,107.311057 C1103.27046,104.876286 1105.24435,102.902514 1107.67927,102.902514 C1110.11418,102.902514 1112.08807,104.876286 1112.08807,107.311057 Z M1112.08807,89.6768854 C1112.08807,92.1116563 1110.11418,94.0854282 1107.67927,94.0854282 C1105.24435,94.0854282 1103.27046,92.1116563 1103.27046,89.6768854 C1103.27046,87.2421144 1105.24435,85.2683425 1107.67927,85.2683425 C1110.11418,85.2683425 1112.08807,87.2421144 1112.08807,89.6768854 Z M1112.08807,72.0427141 C1112.08807,74.4774851 1110.11418,76.4512569 1107.67927,76.4512569 C1105.24435,76.4512569 1103.27046,74.4774851 1103.27046,72.0427141 C1103.27046,69.6079431 1105.24435,67.6341713 1107.67927,67.6341713 C1110.11418,67.6341713 1112.08807,69.6079431 1112.08807,72.0427141 Z M1112.08807,54.4085428 C1112.08807,56.8433138 1110.11418,58.8170856 1107.67927,58.8170856 C1105.24435,58.8170856 1103.27046,56.8433138 1103.27046,54.4085428 C1103.27046,51.9737719 1105.24435,50 1107.67927,50 C1110.11418,50 1112.08807,51.9737719 1112.08807,54.4085428 Z M1129.7233,142.579399 C1129.7233,145.01417 1127.74941,146.987942 1125.31449,146.987942 C1122.87958,146.987942 1120.90569,145.01417 1120.90569,142.579399 C1120.90569,140.144628 1122.87958,138.170856 1125.31449,138.170856 C1127.74941,138.170856 1129.7233,140.144628 1129.7233,142.579399 Z M1129.7233,124.945228 C1129.7233,127.379999 1127.74941,129.353771 1125.31449,129.353771 C1122.87958,129.353771 1120.90569,127.379999 1120.90569,124.945228 C1120.90569,122.510457 1122.87958,120.536685 1125.31449,120.536685 C1127.74941,120.536685 1129.7233,122.510457 1129.7233,124.945228 Z M1129.7233,107.311057 C1129.7233,109.745828 1127.74941,111.719599 1125.31449,111.719599 C1122.87958,111.719599 1120.90569,109.745828 1120.90569,107.311057 C1120.90569,104.876286 1122.87958,102.902514 1125.31449,102.902514 C1127.74941,102.902514 1129.7233,104.876286 1129.7233,107.311057 Z M1129.7233,89.6768854 C1129.7233,92.1116563 1127.74941,94.0854282 1125.31449,94.0854282 C1122.87958,94.0854282 1120.90569,92.1116563 1120.90569,89.6768854 C1120.90569,87.2421144 1122.87958,85.2683425 1125.31449,85.2683425 C1127.74941,85.2683425 1129.7233,87.2421144 1129.7233,89.6768854 Z M1129.7233,72.0427141 C1129.7233,74.4774851 1127.74941,76.4512569 1125.31449,76.4512569 C1122.87958,76.4512569 1120.90569,74.4774851 1120.90569,72.0427141 C1120.90569,69.6079431 1122.87958,67.6341713 1125.31449,67.6341713 C1127.74941,67.6341713 1129.7233,69.6079431 1129.7233,72.0427141 Z M1129.7233,54.4085428 C1129.7233,56.8433138 1127.74941,58.8170856 1125.31449,58.8170856 C1122.87958,58.8170856 1120.90569,56.8433138 1120.90569,54.4085428 C1120.90569,51.9737719 1122.87958,50 1125.31449,50 C1127.74941,50 1129.7233,51.9737719 1129.7233,54.4085428 Z M1147.35853,142.579399 C1147.35853,145.01417 1145.38464,146.987942 1142.94972,146.987942 C1140.51481,146.987942 1138.54092,145.01417 1138.54092,142.579399 C1138.54092,140.144628 1140.51481,138.170856 1142.94972,138.170856 C1145.38464,138.170856 1147.35853,140.144628 1147.35853,142.579399 Z M1147.35853,124.945228 C1147.35853,127.379999 1145.38464,129.353771 1142.94972,129.353771 C1140.51481,129.353771 1138.54092,127.379999 1138.54092,124.945228 C1138.54092,122.510457 1140.51481,120.536685 1142.94972,120.536685 C1145.38464,120.536685 1147.35853,122.510457 1147.35853,124.945228 Z M1147.35853,107.311057 C1147.35853,109.745828 1145.38464,111.719599 1142.94972,111.719599 C1140.51481,111.719599 1138.54092,109.745828 1138.54092,107.311057 C1138.54092,104.876286 1140.51481,102.902514 1142.94972,102.902514 C1145.38464,102.902514 1147.35853,104.876286 1147.35853,107.311057 Z M1147.35853,89.6768854 C1147.35853,92.1116563 1145.38464,94.0854282 1142.94972,94.0854282 C1140.51481,94.0854282 1138.54092,92.1116563 1138.54092,89.6768854 C1138.54092,87.2421144 1140.51481,85.2683425 1142.94972,85.2683425 C1145.38464,85.2683425 1147.35853,87.2421144 1147.35853,89.6768854 Z M1147.35853,72.0427141 C1147.35853,74.4774851 1145.38464,76.4512569 1142.94972,76.4512569 C1140.51481,76.4512569 1138.54092,74.4774851 1138.54092,72.0427141 C1138.54092,69.6079431 1140.51481,67.6341713 1142.94972,67.6341713 C1145.38464,67.6341713 1147.35853,69.6079431 1147.35853,72.0427141 Z M1147.35853,54.4085428 C1147.35853,56.8433138 1145.38464,58.8170856 1142.94972,58.8170856 C1140.51481,58.8170856 1138.54092,56.8433138 1138.54092,54.4085428 C1138.54092,51.9737719 1140.51481,50 1142.94972,50 C1145.38464,50 1147.35853,51.9737719 1147.35853,54.4085428 Z M1164.99376,142.579399 C1164.99376,145.01417 1163.01987,146.987942 1160.58495,146.987942 C1158.15004,146.987942 1156.17615,145.01417 1156.17615,142.579399 C1156.17615,140.144628 1158.15004,138.170856 1160.58495,138.170856 C1163.01987,138.170856 1164.99376,140.144628 1164.99376,142.579399 Z M1164.99376,124.945228 C1164.99376,127.379999 1163.01987,129.353771 1160.58495,129.353771 C1158.15004,129.353771 1156.17615,127.379999 1156.17615,124.945228 C1156.17615,122.510457 1158.15004,120.536685 1160.58495,120.536685 C1163.01987,120.536685 1164.99376,122.510457 1164.99376,124.945228 Z M1164.99376,107.311057 C1164.99376,109.745828 1163.01987,111.719599 1160.58495,111.719599 C1158.15004,111.719599 1156.17615,109.745828 1156.17615,107.311057 C1156.17615,104.876286 1158.15004,102.902514 1160.58495,102.902514 C1163.01987,102.902514 1164.99376,104.876286 1164.99376,107.311057 Z M1164.99376,89.6768854 C1164.99376,92.1116563 1163.01987,94.0854282 1160.58495,94.0854282 C1158.15004,94.0854282 1156.17615,92.1116563 1156.17615,89.6768854 C1156.17615,87.2421144 1158.15004,85.2683425 1160.58495,85.2683425 C1163.01987,85.2683425 1164.99376,87.2421144 1164.99376,89.6768854 Z M1164.99376,72.0427141 C1164.99376,74.4774851 1163.01987,76.4512569 1160.58495,76.4512569 C1158.15004,76.4512569 1156.17615,74.4774851 1156.17615,72.0427141 C1156.17615,69.6079431 1158.15004,67.6341713 1160.58495,67.6341713 C1163.01987,67.6341713 1164.99376,69.6079431 1164.99376,72.0427141 Z M1164.99376,54.4085428 C1164.99376,56.8433138 1163.01987,58.8170856 1160.58495,58.8170856 C1158.15004,58.8170856 1156.17615,56.8433138 1156.17615,54.4085428 C1156.17615,51.9737719 1158.15004,50 1160.58495,50 C1163.01987,50 1164.99376,51.9737719 1164.99376,54.4085428 Z" id="Shape" fill="#D8E2FF"></path></g><g id="Plant" transform="translate(373.500000, 338.000000) scale(-1, 1) translate(-373.500000, -338.000000) translate(266.000000, 206.000000)"><path d="M39.4981201,164.85314 C63.4566962,71.748516 121.682551,39.0261602 214.175686,66.686073 C206.306031,108.785983 187.576224,141.226961 157.986264,164.009006 C128.396305,186.791051 88.9002567,187.07243 39.4981201,164.85314 Z" id="Shape" fill="#D8E2FF"></path><path d="M112.199981,124.886095 C100.139976,131.70387 89.6132561,137.684381 80.6200381,142.827502 L106.833213,152.40034 C107.351987,152.589792 107.618955,153.163922 107.429503,153.682696 C107.240051,154.20147 106.66592,154.468438 106.147147,154.278986 L78.4735497,144.172815 C78.4334125,144.158157 78.3947825,144.141197 78.3577547,144.122137 C64.2878983,152.179389 54.1992577,158.06264 48.092738,161.771355 C47.6206926,162.058046 47.0056154,161.907786 46.7189248,161.435741 C46.4322341,160.963695 46.5824938,160.348618 47.0545393,160.061927 C57.2599941,153.863777 78.5426326,141.617214 110.906658,123.319766 L114.182626,91.2147532 C114.317975,89.8883075 116.307644,90.0913315 116.172294,91.4177773 L113.040088,122.113908 C137.314606,108.396877 167.641095,91.3752236 204.02125,71.047949 C204.503379,70.7785611 205.112604,70.951022 205.381992,71.4331513 C205.65138,71.9152805 205.478919,72.5245055 204.99679,72.7938934 C185.072135,83.9267193 166.963292,94.068028 150.67054,103.217655 L178.847155,109.94056 C179.38436,110.068737 179.715944,110.608135 179.587767,111.14534 C179.459591,111.682545 178.920192,112.014128 178.382987,111.885952 L148.101221,104.660761 C135.046853,111.994206 123.186373,118.675724 112.51993,124.705228 C112.425509,124.78719 112.316363,124.847224 112.199981,124.886095 L112.199981,124.886095 Z" id="Shape" fill="#FFFFFF" fill-rule="nonzero"></path><path d="M50.2925002,192.93029 C1.39886056,110.154107 19.4325579,45.8440106 104.393592,5.68434189e-14 C128.598038,35.3338181 138.293299,71.5170271 133.479377,108.549627 C128.665455,145.582227 100.936496,173.709114 50.2925002,192.93029 Z" id="Shape" fill="#4B91FC"></path><path d="M71.4174312,113.068298 L51.0322176,88.0501669 C50.1899853,87.0165217 51.7404532,85.7531732 52.5826855,86.7868184 L72.0733233,110.707065 C79.5385941,83.8429829 88.9465331,50.3627908 100.297634,10.2645827 C100.448065,9.73317982 101.0008,9.42434098 101.532203,9.57477183 C102.063606,9.72520267 102.372445,10.2779381 102.222014,10.809341 C96.0052518,32.7702963 90.3713544,52.7461701 85.3204025,70.7366492 L109.99809,55.5665848 C110.468586,55.2773579 111.084463,55.4243053 111.37369,55.8948011 C111.662917,56.3652968 111.515969,56.9811737 111.045474,57.2704006 L84.5240498,73.5738611 C80.4787456,87.9902222 76.8166666,101.101395 73.537856,112.907212 C73.5290457,113.031934 73.4943191,113.151562 73.4395101,113.261343 C69.7326936,126.609949 66.518039,138.282324 63.7956093,148.278225 L89.1001411,136.51173 C89.6009325,136.278864 90.1956791,136.496061 90.4285449,136.996852 C90.6614106,137.497643 90.444214,138.09239 89.9434227,138.325256 L63.2290923,150.747301 C63.1903464,150.765318 63.151038,150.78064 63.1113783,150.793346 C58.8598251,166.439575 55.8861651,177.733407 54.1906615,184.673826 C54.0595959,185.210334 53.518421,185.539009 52.9819135,185.407944 C52.4454061,185.276878 52.1167305,184.735703 52.2477961,184.199196 C55.0813881,172.600095 61.4708588,148.89137 71.4174312,113.068298 Z" id="Shape" fill="#FFFFFF" fill-rule="nonzero"></path><path d="M-1.13686838e-13,227.324394 C47.2394574,143.593169 111.950484,127.05576 194.133079,177.712169 C175.635317,216.340743 149.14737,242.82869 114.669237,257.176011 C80.1911033,271.523332 41.9680244,261.572793 -1.13686838e-13,227.324394 Z" id="Shape" fill="#4B91FC"></path><path d="M79.7249797,205.688125 L91.1987099,175.524946 C91.6727567,174.278729 93.5420825,174.9898 93.0680357,176.236017 L82.0978137,205.075527 C109.095426,198.108601 142.794093,189.516019 183.19571,179.297256 C183.731134,179.161832 184.274964,179.486095 184.410388,180.021519 C184.545813,180.556943 184.221549,181.100773 183.686125,181.236197 C161.558999,186.832801 141.442436,191.94164 123.336749,196.562627 L148.813254,210.349099 C149.298979,210.611947 149.479657,211.218786 149.21681,211.704511 C148.953962,212.190237 148.347123,212.370915 147.861397,212.108067 L120.481475,197.291571 C105.973888,200.996415 92.7882394,204.380548 80.9246965,207.443924 C80.8122791,207.498655 80.6913149,207.528394 80.5688374,207.535819 C67.1551971,210.999925 55.4392964,214.05214 45.4213772,216.692397 L68.2637271,232.723517 C68.7157905,233.040782 68.825066,233.664446 68.5078008,234.116509 C68.1905357,234.568573 67.5668717,234.677848 67.1148084,234.360583 L42.9998362,217.436317 C42.9648603,217.41177 42.9319364,217.38539 42.9011031,217.357396 C27.2252951,221.498557 15.9577195,224.570208 9.09938818,226.572069 C8.56922629,226.726816 8.01399746,226.422483 7.85924988,225.892321 C7.7045023,225.362159 8.00883573,224.80693 8.53899762,224.652183 C20.0009094,221.306595 43.7280033,214.985676 79.7249797,205.688125 Z" id="Shape" fill="#FFFFFF" fill-rule="nonzero"></path></g><g id="Data" transform="translate(409.000000, 330.000000)"><path d="M24,0 L811.911555,0 C825.166389,0 835.911555,10.745166 835.911555,24 L835.911555,696 C835.911555,709.254834 825.166389,720 811.911555,720 L24,720 C10.745166,720 0,709.254834 0,696 L0,24 C0,10.745166 10.745166,0 24,0 Z" id="Shape" fill="#D8E2FF"></path><polygon id="Shape" fill="#42c657" points="781.80003 672 48 672 170.13975 653.946774 292.8 605.946774 415.2 605.946774 538.8 543.6 660.785674 543.6 784.733174 433.814947"></polygon><polygon id="Shape" fill="#FFFFFF" points="48 48 785.39997 48 785.39997 384 48 384"></polygon><polygon id="Shape" fill="#D8E2FF" points="382.8 96 737.39997 96 737.39997 124.8 382.8 124.8"></polygon><polygon id="Shape" fill="#ffc83c" points="382.8 96 516 96 516 124.8 382.8 124.8"></polygon><polygon id="Shape" fill="#D8E2FF" points="382.8 307.2 737.39997 307.2 737.39997 336 382.8 336"></polygon><polygon id="Shape" fill="#42c657" points="382.8 307.2 659.797177 307.2 659.797177 336 382.8 336"></polygon><polygon id="Shape" fill="#D8E2FF" points="382.8 236.4 737.39997 236.4 737.39997 265.2 382.8 265.2"></polygon><polygon id="Shape" fill="#ffc83c" points="382.8 236.4 559.553281 236.4 559.553281 265.2 382.8 265.2"></polygon><polygon id="Shape" fill="#D8E2FF" points="382.8 165.6 737.39997 165.6 737.39997 194.4 382.8 194.4"></polygon><polygon id="Shape" fill="#42c657" points="382.8 165.6 609.349233 165.6 609.349233 194.4 382.8 194.4"></polygon><path d="M48.5999695,671.346136 L47.4000305,671.334043 L49.8000305,433.193953 L50.9999695,433.206047 L48.5999695,671.346136 Z M170.99997,671.346136 L169.80003,671.334043 L172.20003,433.193953 L173.39997,433.206047 L170.99997,671.346136 Z M293.39997,671.346136 L292.20003,671.334043 L294.60003,433.193953 L295.79997,433.206047 L293.39997,671.346136 Z M415.79997,671.346136 L414.60003,671.334043 L417.00003,433.193953 L418.19997,433.206047 L415.79997,671.346136 Z M538.19997,671.346136 L537.00003,671.334043 L539.40003,433.193953 L540.59997,433.206047 L538.19997,671.346136 Z M660.59997,671.346136 L659.40003,671.334043 L661.80003,433.193953 L662.99997,433.206047 L660.59997,671.346136 Z M782.99997,671.346136 L781.80003,671.334043 L784.20003,433.193953 L785.39997,433.206047 L782.99997,671.346136 Z" id="Shape" fill="#FFFFFF" fill-rule="nonzero"></path><circle id="Shape" fill="#D8E2FF" cx="214.8" cy="216" r="120"></circle><path d="M214.8,336 L214.8,216 L214.8,216 L126.255665,135.005695 L126.255665,135.005695 C106.719571,156.351134 94.8,184.783584 94.8,216 C94.8,282.27417 148.52583,336 214.8,336 Z" id="Shape" fill="#42c657"></path><path d="M334.8,216 L214.8,215.749191 L214.8,215.749191 L214.8,336 L214.8,336 C281.07417,336 334.8,282.27417 334.8,216 Z" id="Shape" fill="#ffc83c"></path></g><g id="Men" transform="translate(1053.000000, 470.000000)"><path d="M305.481105,155.685299 L316.331676,177.903338 C321.792452,189.08503 319.783309,202.477109 311.281728,211.564101 L283.811736,240.925654 L272.780724,225.739034 L292.476342,198.305476 L283.811736,176.687153 L305.481105,155.685299 Z" id="Shape" fill="#FE9F9F"></path><polygon id="Shape" fill="#221E41" points="253.015364 88.3993354 278.932016 99.9758803 310.962586 155.398251 289.76098 182.302804 253.015364 142.345979"></polygon><polygon id="Shape" fill="#FE9F9F" points="273.380378 539.910723 273.380378 561.525629 251.752471 561.525629 251.752471 539.910723"></polygon><polygon id="Shape" fill="#FE9F9F" points="209.698207 539.910723 209.698207 561.525629 188.0703 561.525629 188.0703 539.910723"></polygon><polygon id="Shape" fill="#221E41" points="247.852561 553.044631 217.678533 265.619915 288.53018 263.867404 275.981194 553.044631"></polygon><path d="M183.645264,552.716416 L170.638139,398.934102 C169.677341,387.574653 170.340126,376.13625 172.606509,364.963797 L192.719883,265.812112 L288.600682,264.232238 L221.922553,399.065729 L213.39602,552.716416 L183.645264,552.716416 Z" id="Shape" fill="#0C63D2"></path><path d="M210.899757,559.123973 L210.899757,574.530922 C210.899757,577.181889 208.750724,579.330922 206.099757,579.330922 L163.493133,579.330922 C161.803975,579.330922 160.434641,577.655559 160.434641,575.588894 C160.434641,567.543781 166.541886,566.495569 173.793054,563.927286 L188.183162,559.123973 L210.899757,559.123973 Z" id="Shape" fill="#221E41"></path><path d="M173.82999,92.7037598 L173.82999,133.538052 L112.066156,124.741454 L36.6799395,70.1172413 C30.4534315,72.2445147 17.1911566,72.2445147 10.9249466,68.1028688 C4.65873671,63.9612229 0.914774794,59.521186 -1.42108547e-14,54.4 L20.292348,54.4 L20.292348,43.2977676 L30.4534315,51.7246349 L113.259921,92.7037598 L173.82999,92.7037598 Z" id="Shape" fill="#FE9F9F"></path><path d="M274.581928,559.123973 L274.581928,574.530922 C274.581928,577.181889 272.432895,579.330922 269.781928,579.330922 L227.175304,579.330922 C225.486145,579.330922 224.116812,577.655559 224.116812,575.588894 C224.116812,567.543781 230.224056,566.495569 237.475225,563.927286 L251.865332,559.123973 L274.581928,559.123973 Z" id="Shape" fill="#221E41"></path><path d="M221.52512,89.975095 C220.728949,77.7858674 218.352283,70.8687172 214.395122,69.2236442 C208.459381,66.7560347 204.649285,65.5194731 205.424059,59.2735663 C206.198832,53.0276595 204.520013,50.924367 201.934358,49.687075 C199.348703,48.4497829 197.272225,44.4819995 204.653577,40.2319893 C209.574479,37.3986492 212.397839,30.5962846 213.123659,19.8248955 C239.734544,11.1298598 254.488356,16.1149047 257.385096,34.7800304 C260.281836,53.445156 258.299168,68.0282299 251.437091,78.529252 L251.437091,89.975095 L221.52512,89.975095 Z" id="Shape" fill="#FE9F9F"></path><path d="M157.860447,86.1274155 C200.3031,86.1274155 226.048056,86.1274155 235.095314,86.1274155 C239.484917,86.1274155 243.874521,86.1274155 248.264124,86.1274155 C271.460084,86.1274155 290.264124,104.931456 290.264124,128.127416 L290.264124,265.994482 L192.654529,265.994482 L192.654529,135.02783 L157.860447,135.02783 L157.860447,86.1274155 Z" id="Shape" fill="#ffc83c"></path><path d="M251.840773,78.2882838 C243.642449,78.0374529 238.957038,76.622035 237.784539,74.0420301 C236.025792,70.1720227 235.795236,63.2724188 236.187436,61.0948814 C236.579637,58.9173441 239.06187,59.82876 241.021915,59.82876 C242.981959,59.82876 246.024802,55.4172005 243.994247,52.1003932 C241.963693,48.7835858 239.154604,49.3031185 237.784539,49.8920604 C236.414475,50.4810023 233.11986,48.8314543 234.223714,43.47529 C235.327569,38.1191257 237.791734,33.1025085 234.223714,33.1025085 C230.655695,33.1025085 210.662888,30.8099272 209.608279,17.2388926 C208.553669,3.66785805 216.430462,-4.02173535 229.077298,2.1698936 C241.724135,8.36152255 245.796276,7.78582424 255.324852,9.95969169 C264.853429,12.1335591 274.339156,14.8020676 276.346686,31.5132748 C278.354217,48.2244819 271.67865,56.7284778 263.995799,62.793734 C256.312949,68.8589901 258.072976,70.7175638 257.008773,74.0420301 C256.299305,76.2583409 254.576638,77.6737588 251.840773,78.2882838 Z" id="Shape" fill="#221E41"></path><path d="M235.134232,272.286741 L232.693766,278.847543 L231.756508,278.498905 L234.196975,271.938103 L235.134232,272.286741 Z M229.207385,288.220117 L226.766918,294.780919 L225.829661,294.432281 L228.270128,287.871479 L229.207385,288.220117 Z M223.280537,304.153493 L220.840071,310.714295 L219.902813,310.365657 L222.34328,303.804855 L223.280537,304.153493 Z M217.35369,320.08687 L214.913223,326.647672 L213.975966,326.299033 L216.416432,319.738231 L217.35369,320.08687 Z M211.426842,336.020246 L208.986376,342.581048 L208.049118,342.23241 L210.489585,335.671608 L211.426842,336.020246 Z M205.499995,351.953622 L203.059528,358.514424 L202.122271,358.165786 L204.562737,351.604984 L205.499995,351.953622 Z M199.580235,367.884266 C198.793513,370.070516 198.083879,372.282897 197.452469,374.517362 L196.490151,374.245432 C197.127908,371.98851 197.844674,369.753893 198.639303,367.545671 L199.580235,367.884266 Z M195.225978,384.232297 C194.821243,386.518921 194.496658,388.819135 194.252847,391.128698 L193.258373,391.023716 C193.504634,388.690941 193.832481,386.36761 194.241284,384.058005 L195.225978,384.232297 Z M193.704264,401.078528 C193.698919,402.151262 193.710923,403.224211 193.740287,404.296963 L193.844249,408.07507 L192.844627,408.102576 L192.740664,404.324398 C192.711002,403.240793 192.698878,402.157061 192.704276,401.073546 L193.704264,401.078528 Z M194.119316,418.071286 L194.311863,425.068637 L193.312242,425.096144 L193.119695,418.098793 L194.119316,418.071286 Z M194.58693,435.064853 L194.779478,442.062205 L193.779856,442.089711 L193.587309,435.09236 L194.58693,435.064853 Z M195.054545,452.058421 L195.247092,459.055772 L194.24747,459.083279 L194.054923,452.085928 L195.054545,452.058421 Z M195.522159,469.051988 L195.714706,476.04934 L194.715085,476.076846 L194.522538,469.079495 L195.522159,469.051988 Z M195.989773,486.045556 L196.182321,493.042907 L195.182699,493.070414 L194.990152,486.073063 L195.989773,486.045556 Z M196.457388,503.039123 L196.649935,510.036475 L195.650313,510.063981 L195.457766,503.06663 L196.457388,503.039123 Z M196.925002,520.032691 L197.117549,527.030042 L196.117928,527.057549 L195.925381,520.060198 L196.925002,520.032691 Z M197.392616,537.026258 L197.585164,544.02361 L196.585542,544.051116 L196.392995,537.053765 L197.392616,537.026258 Z" id="Shape" fill="#FFFFFF" fill-rule="nonzero"></path></g><g id="Women" transform="translate(217.000000, 644.000000)"><polygon id="Shape" fill="#FE9F9F" points="215.984554 367.688726 236.773281 362.505514 241.948306 383.261406 221.159579 388.444617"></polygon><path d="M219.429647,386.426363 L241.264821,380.982243 L256.246586,382.146018 C263.8313,382.874463 269.952541,382.417392 271.878696,390.142778 C272.373495,392.12731 271.458407,394.064257 269.834789,394.46907 L228.878425,404.680639 C226.331926,405.315552 223.752881,403.765906 223.117967,401.219406 L219.429647,386.426363 Z" id="Shape" fill="#221E41"></path><polygon id="Shape" fill="#FE9F9F" points="156.418724 370.6406 177.229033 368.65497 174.026273 388.031904 152.601127 388.031904"></polygon><path d="M152.410841,385.655092 L174.914469,385.655092 L189.169669,390.408716 C196.352858,392.950431 202.402847,393.987799 202.402847,401.949687 C202.402847,403.994972 201.046351,405.653004 199.373029,405.653004 L157.162841,405.653004 C154.538384,405.653004 152.410841,403.525461 152.410841,400.901004 L152.410841,385.655092 Z" id="Shape" fill="#221E41"></path><path d="M178.550314,206.049938 C176.409657,207.124889 175.832464,209.119773 178.550314,211.007693 C181.268164,212.895613 181.324671,212.590169 186.155533,213.445926 C196.156133,215.21747 181.889207,219.556932 176.173239,217.093292 C170.45727,214.629652 171.586414,214.111988 157.985231,214.111988 C144.384048,214.111988 135.649598,217.598658 114.957872,219.152565 C101.163388,220.188503 82.0753893,219.502079 57.6938761,217.093292 L47.3524743,159.76509 L79.9206525,157.225036 L83.3020986,190.24569 C120.425553,197.724486 131.734671,200.484855 147.511184,200.484855 C163.287697,200.484855 175.505786,197.724486 182.420856,197.724486 C191.972684,197.809311 198.923003,199.666059 203.271812,203.294731 C201.300266,204.764241 199.917998,206.049938 194.235988,204.624347 C188.553979,203.198755 180.690972,204.974987 178.550314,206.049938 Z" id="Shape" fill="#FE9F9F"></path><path d="M213.523853,378.16751 L185.2175,284.177285 L80.9962374,293.762971 C56.9057046,295.978683 34.9312199,279.920187 29.7247821,256.294858 L24.7711036,233.816479 C25.1696247,233.88791 85.071051,233.925545 204.475382,233.929385 C216.467636,233.929771 226.619045,242.782168 228.251272,254.662824 L244.402847,372.22695 L213.523853,378.16751 Z" id="Shape" fill="#221E41"></path><path d="M149.632095,377.363032 L169.983541,297.6406 L72.7711036,297.6406 C46.2614356,297.6406 24.7711036,276.150268 24.7711036,249.6406 L24.7711036,233.816479 C25.1560521,233.885477 85.5154864,233.922943 205.849407,233.928876 C208.924679,233.929027 211.971266,234.520209 214.823405,235.670256 C227.116501,240.627112 233.0637,254.610962 228.106844,266.904058 L183.567276,377.363032 L149.632095,377.363032 Z" id="Shape" fill="#0C63D2"></path><path d="M57.5173372,83.9297127 C68.7173611,79.2784982 81.7915773,84.3645074 96.7399858,99.1877404 C111.688394,114.010973 113.340441,159.180623 101.696127,234.696689 L24.4304578,234.696689 L24.4304578,165.182024 C24.4304578,125.126653 26.8668537,107.27454 36.8284905,94.1405997 C43.4695816,85.3846394 50.3658639,81.9810104 57.5173372,83.9297127 Z" id="Shape" fill="#8963f9"></path><path d="M200.419487,206.023805 C201.066325,206.023805 208.762769,205.829309 211.668213,206.53444 C214.573656,207.23957 213.170063,210.122918 206.04385,209.609944 C198.917636,209.09697 199.772649,206.023805 200.419487,206.023805 Z" id="Shape" fill="#FE9F9F"></path><path d="M277.176201,146.287806 L277.894746,146.300065 C278.584325,146.311829 279.133805,146.880691 279.122409,147.570655 C279.118961,147.751533 279.076658,147.929585 278.998061,148.092504 L239.813342,229.315551 C239.690718,229.569728 239.52743,229.798406 239.332345,229.994071 C239.16543,230.467918 238.767056,230.838383 238.259385,230.957579 L219.66664,231.535806 L218.152091,231.591744 L218.15564,231.582806 L135.141507,234.16852 C134.335777,234.357696 133.529334,233.857518 133.340267,233.05134 C133.307937,232.913486 133.295287,232.771744 133.302694,232.630339 L133.375174,231.246649 C133.41006,230.580652 133.8804,230.01776 134.529314,229.865402 L220.36964,227.191806 L252.739922,163.003782 L277.176201,146.287806 Z" id="Path" fill="#221E41"></path><polygon id="Shape" fill="#FFFFFF" points="251.494415 162.938471 277.228665 146.243641 236.490463 228.413122 218.152091 228.413122"></polygon><path d="M79.7830331,140.865298 L94.9786259,205.35242 C78.1135943,208.031751 69.6810785,208.954515 69.6810785,208.120712 C69.6810785,207.286909 67.2263464,198.14298 62.3168821,180.688924 L79.7830331,140.865298 Z" id="Shape" fill="#221E41"></path><path d="M197.701526,220.662927 C197.701526,221.495981 199.19129,222.386651 202.106714,223.991153 C208.219615,227.355386 202.387626,227.69636 196.671658,225.23272 C190.955689,222.76908 190.054665,221.014922 175.997477,221.495981 C161.940288,221.97704 134.229084,225.738086 113.537358,227.291993 C99.7428738,228.327931 80.6548752,227.641507 56.2733621,225.23272 L45.9319602,167.904518 L78.5001384,165.364464 L81.8815846,198.385118 C122.825994,203.370981 151.186455,205.863913 166.962967,205.863913 C182.73948,205.863913 194.085272,205.863913 201.000342,205.863913 C206.210997,207.458371 211.303204,210.996259 216.276965,216.477578 C217.581129,218.226569 217.173117,218.958093 215.052928,218.672149 C211.872646,218.243233 207.261517,212.250683 201.652952,211.306922 C208.132718,214.843169 212.441462,218.576954 214.511039,221.495981 C217.615403,225.874521 209.999891,221.049684 207.339795,219.220843 C200.914282,215.956517 198.801131,215.176888 201.000342,216.881958 C204.299157,219.439562 207.335802,221.450567 209.768895,223.341643 C212.201989,225.23272 208.835992,225.272199 205.697454,223.991153 C202.558915,222.710107 197.701526,219.829874 197.701526,220.662927 Z" id="Shape" fill="#FE9F9F"></path><path d="M56.7099257,75.6052844 C61.5104832,66.6022597 64.9272108,59.7897824 66.9601083,55.1678525 C68.9930058,50.5459226 71.0081393,45.3670366 73.0055088,39.6311946 C71.7883213,29.5879211 75.231658,23.1565914 83.3355189,20.3372055 C95.4913102,16.1081265 115.429044,22.7452405 120.623071,28.2442837 C125.817098,33.7433269 127.614872,47.8535244 120.623071,56.2815202 L122.283513,66.3028362 C120.083492,67.9175186 117.951435,68.2375505 115.887343,67.2629318 C112.600649,72.194771 110.208857,75.2910689 108.711966,76.5518256 C106.46663,78.4429606 101.219745,84.1731541 89.5393118,78.5692597 C86.8728839,83.6021442 84.8631802,87.3047288 83.5102006,89.6770136 C81.9203869,92.4645579 92.3989366,96.3563007 83.5102006,104.175665 C77.5843765,109.388575 67.0056126,102.715488 51.7739087,84.1564042 L56.7099257,75.6052844 Z" id="Shape" fill="#FE9F9F"></path><path d="M64.1636279,67.9950354 C61.9488038,65.9523307 61.1078651,63.7071719 61.640812,61.2595588 C62.4402322,57.5881392 65.0783881,56.8007067 61.1947905,47.0182049 C57.3111929,37.2357031 55.6776618,25.7204449 66.5415803,11.2174156 C77.4054989,-3.28561373 87.6681746,-0.677935755 97.7044452,2.41396323 C107.740716,5.50586222 141.402847,11.2174156 136.837539,29.220266 C132.272231,47.2231165 108.200066,37.2446831 104.880138,35.3279218 C101.56021,33.4111605 101.152492,39.4124059 99.2962627,44.9994767 C97.4400337,50.5865475 93.4865161,50.3546955 92.5287541,49.0695608 C91.5709921,47.784426 89.2368999,45.7909561 85.5620308,47.7927129 C81.8871617,49.7944698 82.3435985,55.5424294 84.1673571,56.595377 C85.9911157,57.6483245 88.7913871,58.1319927 87.9841056,60.3730155 C87.1768241,62.6140384 83.2481051,68.9233553 79.5283446,71.5869306 C77.0485042,73.3626474 71.926932,72.165349 64.1636279,67.9950354 Z" id="Shape" fill="#221E41"></path><polygon id="Shape" fill="#8963f9" points="79.5819366 136.528686 81.9556338 172.22983 42.7612364 178.566261 41.0257836 141.39206"></polygon><path d="M166.787556,368.516017 L168.732903,361.79176 L169.693511,362.069667 L167.748164,368.793924 L166.787556,368.516017 Z M171.511971,352.18568 L173.457318,345.461424 L174.417926,345.73933 L172.472579,352.463587 L171.511971,352.18568 Z M176.236386,335.855343 L178.181733,329.131087 L179.142342,329.408993 L177.196994,336.13325 L176.236386,335.855343 Z M180.960801,319.525006 L182.906148,312.80075 L183.866757,313.078657 L181.921409,319.802913 L180.960801,319.525006 Z M185.685216,303.194669 L187.630564,296.470413 L188.591172,296.74832 L186.645824,303.472576 L185.685216,303.194669 Z M190.409631,286.864332 L192.354979,280.140076 L193.315587,280.417983 L191.370239,287.142239 L190.409631,286.864332 Z M192.298474,270.784308 C191.253633,268.79991 189.544943,267.240369 187.440675,266.396138 L187.813025,265.468046 C190.139546,266.401444 192.028869,268.125851 193.183315,270.318415 L192.298474,270.784308 Z M177.722708,266.037793 L170.733518,266.426665 L170.677965,265.428209 L177.667155,265.039337 L177.722708,266.037793 Z M160.748961,266.982196 L153.75977,267.371068 L153.704217,266.372612 L160.693407,265.98374 L160.748961,266.982196 Z M143.775213,267.926599 L136.786023,268.315471 L136.73047,267.317015 L143.71966,266.928143 L143.775213,267.926599 Z M126.801466,268.871002 L119.812275,269.259874 L119.756722,268.261418 L126.745912,267.872546 L126.801466,268.871002 Z M109.827718,269.815405 L102.838528,270.204277 L102.782975,269.205821 L109.772165,268.816949 L109.827718,269.815405 Z M92.8539707,270.759808 L85.8647805,271.14868 L85.8092274,270.150224 L92.7984175,269.761352 L92.8539707,270.759808 Z M75.7492404,270.276735 C73.4619287,269.516337 71.3259096,268.357297 69.441438,266.857387 L70.06419,266.074968 C71.8569489,267.501881 73.8889834,268.604497 76.0647068,269.327799 L75.7492404,270.276735 Z M63.3090993,258.756209 C63.1043327,258.267855 62.9180409,257.770614 62.7506834,257.265267 L61.0371603,252.075029 L61.9867484,251.761529 L63.7001258,256.951326 C63.8592389,257.431778 64.0364948,257.9049 64.2313118,258.369525 L63.3090993,258.756209 Z" id="Shape" fill="#FFFFFF" fill-rule="nonzero"></path><path d="M71.3914891,23.4912186 C57.0228303,20.4444064 49.8385009,27.4942001 49.8385009,44.6405997 C49.8385009,70.3601992 53.0984458,69.6871301 38.7506465,81.8222382 C29.185447,89.9123102 24.4028472,109.753353 24.4028472,141.345366 C-4.08258791,107.759668 -7.62974409,75.2808603 13.7613786,43.9089423 C35.1525014,12.5370242 56.6996575,3.7199386 78.4028472,17.4576853 L71.3914891,23.4912186 Z" id="Shape" fill="#221E41"></path></g></g></svg> 