<svg width="494" height="332" viewBox="0 0 494 332" fill="none" xmlns="http://www.w3.org/2000/svg">
<path d="M457.966 140.883C461.787 140.883 464.884 137.782 464.884 133.957C464.884 130.132 461.787 127.032 457.966 127.032C454.145 127.032 451.048 130.132 451.048 133.957C451.048 137.782 454.145 140.883 457.966 140.883Z" stroke="#7AE0F0" stroke-width="2" stroke-miterlimit="10" stroke-linecap="round"/>
<path d="M100.721 253.987C104.542 253.987 107.639 250.886 107.639 247.061C107.639 243.236 104.542 240.135 100.721 240.135C96.9009 240.135 93.8037 243.236 93.8037 247.061C93.8037 250.886 96.9009 253.987 100.721 253.987Z" stroke="#7AE0F0" stroke-width="2" stroke-miterlimit="10" stroke-linecap="round"/>
<path d="M436.398 176.804V186.115" stroke="#7AE0F0" stroke-width="2" stroke-miterlimit="10" stroke-linecap="round"/>
<path d="M441.041 181.467H431.741" stroke="#7AE0F0" stroke-width="2" stroke-miterlimit="10" stroke-linecap="round"/>
<path d="M24.0117 130.572L30.5912 137.159" stroke="#7AE0F0" stroke-width="2" stroke-miterlimit="10" stroke-linecap="round"/>
<path d="M30.5912 130.572L24.0117 137.159" stroke="#7AE0F0" stroke-width="2" stroke-miterlimit="10" stroke-linecap="round"/>
<path d="M272.772 272.486H151.512L153.588 259.912H270.696L272.772 272.486Z" fill="#0AA7B4"/>
<path d="M243.533 259.912H186.639L192.865 213.31H237.307L243.533 259.912Z" fill="#0AA7B4"/>
<path d="M252.848 259.912H195.97L202.18 213.31H246.638L252.848 259.912Z" fill="#98EDF5"/>
<path d="M280.381 272.486H159.121L161.196 259.912H278.305L280.381 272.486Z" fill="#98EDF5"/>
<path d="M73.6039 215.311H352.356C358.736 215.311 363.901 210.139 363.901 203.752V25.7326C363.901 19.3456 358.736 14.1744 352.356 14.1744H73.6039C67.2243 14.1744 62.0591 19.3456 62.0591 25.7326V203.768C62.0591 210.139 67.2243 215.311 73.6039 215.311Z" fill="#0AA7B4"/>
<path d="M82.4433 215.311H361.195C367.575 215.311 372.74 210.139 372.74 203.752V25.7326C372.74 19.3456 367.575 14.1744 361.195 14.1744H82.4433C76.0636 14.1744 70.8984 19.3456 70.8984 25.7326V203.768C70.9138 210.139 76.079 215.311 82.4433 215.311Z" fill="#98EDF5"/>
<path d="M358.013 199.72H85.6404C80.9057 199.72 77.0625 195.873 77.0625 191.132V30.2266C77.0625 25.4864 80.9057 21.6388 85.6404 21.6388H358.013C362.748 21.6388 366.591 25.4864 366.591 30.2266V191.148C366.576 195.873 362.748 199.72 358.013 199.72Z" fill="#DFF5F6"/>
<path d="M339.551 181.467H104.104C100.184 181.467 97.0015 178.281 97.0015 174.357V47.0019C97.0015 43.0774 100.184 39.8916 104.104 39.8916H339.551C343.471 39.8916 346.653 43.0774 346.653 47.0019V174.357C346.638 178.281 343.471 181.467 339.551 181.467Z" fill="#F5F5FF"/>
<path d="M298.168 52.1116C300.036 52.1116 301.55 50.5957 301.55 48.7257C301.55 46.8558 300.036 45.3398 298.168 45.3398C296.3 45.3398 294.786 46.8558 294.786 48.7257C294.786 50.5957 296.3 52.1116 298.168 52.1116Z" fill="#7AE0F0"/>
<path d="M319.351 48.7257C319.351 50.5879 317.845 52.1116 315.969 52.1116C314.109 52.1116 312.587 50.6033 312.587 48.7257C312.587 46.8635 314.094 45.3398 315.969 45.3398C317.829 45.3398 319.351 46.8635 319.351 48.7257Z" fill="#7AE0F0"/>
<path d="M337.153 48.7257C337.153 50.5879 335.646 52.1116 333.771 52.1116C331.911 52.1116 330.389 50.6033 330.389 48.7257C330.389 46.8635 331.895 45.3398 333.771 45.3398C335.631 45.3398 337.153 46.8635 337.153 48.7257Z" fill="#7AE0F0"/>
<path d="M153.281 108.286H117.585C114.403 108.286 111.836 105.701 111.836 102.53V66.7786C111.836 63.5928 114.419 61.0226 117.585 61.0226H153.296C156.478 61.0226 159.045 63.6082 159.045 66.7786V102.53C159.045 105.701 156.463 108.286 153.281 108.286Z" fill="#7AE0F0"/>
<path d="M290.249 75.1663H176.83C173.494 75.1663 170.788 72.4576 170.788 69.1179C170.788 65.7782 173.494 63.0695 176.83 63.0695H290.249C293.585 63.0695 296.29 65.7782 296.29 69.1179C296.29 72.4576 293.585 75.1663 290.249 75.1663Z" fill="#7AE0F0"/>
<path d="M258.86 84.9391H172.604C171.59 84.9391 170.775 84.1235 170.775 83.1077C170.775 82.0919 171.59 81.2762 172.604 81.2762H258.86C259.875 81.2762 260.69 82.0919 260.69 83.1077C260.69 84.1235 259.875 84.9391 258.86 84.9391Z" fill="#7AE0F0"/>
<path d="M258.86 93.9271H172.604C171.59 93.9271 170.775 93.1114 170.775 92.0956C170.775 91.0798 171.59 90.2642 172.604 90.2642H258.86C259.875 90.2642 260.69 91.0798 260.69 92.0956C260.69 93.1114 259.875 93.9271 258.86 93.9271Z" fill="#7AE0F0"/>
<path d="M174.88 99.5907L175.418 101.191C175.479 101.391 175.664 101.53 175.879 101.53L177.57 101.545C178.046 101.545 178.231 102.146 177.862 102.423L176.509 103.423C176.34 103.546 176.263 103.761 176.34 103.962L176.847 105.578C176.986 106.024 176.478 106.393 176.094 106.132L174.726 105.147C174.557 105.023 174.326 105.023 174.157 105.147L172.789 106.132C172.405 106.409 171.897 106.039 172.036 105.578L172.543 103.962C172.605 103.761 172.528 103.546 172.374 103.423L171.021 102.423C170.637 102.146 170.837 101.545 171.313 101.545L173.004 101.53C173.219 101.53 173.404 101.391 173.465 101.191L174.003 99.5907C174.111 99.1444 174.741 99.1444 174.88 99.5907Z" fill="#7AE0F0"/>
<path d="M185.579 99.5907L186.117 101.191C186.179 101.391 186.363 101.53 186.579 101.53L188.27 101.545C188.746 101.545 188.931 102.146 188.562 102.423L187.209 103.423C187.04 103.546 186.963 103.761 187.04 103.962L187.547 105.578C187.685 106.024 187.178 106.393 186.794 106.132L185.426 105.147C185.257 105.023 185.026 105.023 184.857 105.147L183.489 106.132C183.104 106.409 182.597 106.039 182.735 105.578L183.243 103.962C183.304 103.761 183.243 103.546 183.074 103.423L181.721 102.423C181.337 102.146 181.536 101.545 182.013 101.545L183.704 101.53C183.919 101.53 184.104 101.391 184.165 101.191L184.703 99.5907C184.795 99.1444 185.426 99.1444 185.579 99.5907Z" fill="#7AE0F0"/>
<path d="M196.263 99.5907L196.801 101.191C196.863 101.391 197.047 101.53 197.262 101.53L198.953 101.545C199.43 101.545 199.614 102.146 199.245 102.423L197.892 103.423C197.723 103.546 197.647 103.761 197.723 103.962L198.231 105.578C198.369 106.024 197.862 106.393 197.477 106.132L196.109 105.147C195.94 105.023 195.71 105.023 195.54 105.147L194.172 106.132C193.788 106.409 193.281 106.039 193.419 105.578L193.926 103.962C193.988 103.761 193.911 103.546 193.757 103.423L192.404 102.423C192.02 102.146 192.22 101.545 192.697 101.545L194.388 101.53C194.603 101.53 194.787 101.391 194.849 101.191L195.387 99.5907C195.479 99.1444 196.109 99.1444 196.263 99.5907Z" fill="#7AE0F0"/>
<path d="M206.947 99.5907L207.485 101.191C207.547 101.391 207.731 101.53 207.946 101.53L209.637 101.545C210.114 101.545 210.298 102.146 209.929 102.423L208.577 103.423C208.407 103.546 208.331 103.761 208.407 103.962L208.915 105.578C209.053 106.024 208.546 106.393 208.162 106.132L206.793 105.147C206.624 105.023 206.394 105.023 206.225 105.147L204.856 106.132C204.472 106.409 203.965 106.039 204.103 105.578L204.61 103.962C204.672 103.761 204.595 103.546 204.441 103.423L203.089 102.423C202.704 102.146 202.904 101.545 203.381 101.545L205.072 101.53C205.287 101.53 205.471 101.391 205.533 101.191L206.071 99.5907C206.178 99.1444 206.809 99.1444 206.947 99.5907Z" fill="#7AE0F0"/>
<path d="M217.647 99.5907L218.185 101.191C218.246 101.391 218.431 101.53 218.646 101.53L220.337 101.545C220.814 101.545 220.998 102.146 220.629 102.423L219.276 103.423C219.107 103.546 219.03 103.761 219.107 103.962L219.614 105.578C219.753 106.024 219.246 106.393 218.861 106.132L217.493 105.147C217.324 105.023 217.093 105.023 216.924 105.147L215.556 106.132C215.172 106.409 214.664 106.039 214.803 105.578L215.31 103.962C215.372 103.761 215.31 103.546 215.141 103.423L213.788 102.423C213.404 102.146 213.604 101.545 214.08 101.545L215.771 101.53C215.987 101.53 216.171 101.391 216.232 101.191L216.771 99.5907C216.863 99.1444 217.493 99.1444 217.647 99.5907Z" fill="#7AE0F0"/>
<path d="M153.281 165.446H117.585C114.403 165.446 111.836 162.86 111.836 159.69V123.938C111.836 120.752 114.419 118.182 117.585 118.182H153.296C156.478 118.182 159.045 120.768 159.045 123.938V159.69C159.045 162.86 156.463 165.446 153.281 165.446Z" fill="#7AE0F0"/>
<path d="M290.249 132.326H176.83C173.494 132.326 170.788 129.617 170.788 126.278C170.788 122.938 173.494 120.229 176.83 120.229H290.249C293.585 120.229 296.29 122.938 296.29 126.278C296.29 129.617 293.585 132.326 290.249 132.326Z" fill="#7AE0F0"/>
<path d="M258.86 142.099H172.604C171.59 142.099 170.775 141.283 170.775 140.267C170.775 139.252 171.59 138.436 172.604 138.436H258.86C259.875 138.436 260.69 139.252 260.69 140.267C260.69 141.283 259.875 142.099 258.86 142.099Z" fill="#7AE0F0"/>
<path d="M258.86 151.087H172.604C171.59 151.087 170.775 150.271 170.775 149.255C170.775 148.24 171.59 147.424 172.604 147.424H258.86C259.875 147.424 260.69 148.24 260.69 149.255C260.69 150.271 259.875 151.087 258.86 151.087Z" fill="#7AE0F0"/>
<path d="M174.88 156.75L175.418 158.351C175.479 158.551 175.664 158.69 175.879 158.69L177.57 158.705C178.046 158.705 178.231 159.305 177.862 159.582L176.509 160.583C176.34 160.706 176.263 160.921 176.34 161.121L176.847 162.737C176.986 163.184 176.478 163.553 176.094 163.291L174.726 162.306C174.557 162.183 174.326 162.183 174.157 162.306L172.789 163.291C172.405 163.568 171.897 163.199 172.036 162.737L172.543 161.121C172.605 160.921 172.528 160.706 172.374 160.583L171.021 159.582C170.637 159.305 170.837 158.705 171.313 158.705L173.004 158.69C173.219 158.69 173.404 158.551 173.465 158.351L174.003 156.75C174.111 156.304 174.741 156.304 174.88 156.75Z" fill="#7AE0F0"/>
<path d="M185.579 156.75L186.117 158.351C186.179 158.551 186.363 158.69 186.579 158.69L188.27 158.705C188.746 158.705 188.931 159.305 188.562 159.582L187.209 160.583C187.04 160.706 186.963 160.921 187.04 161.121L187.547 162.737C187.685 163.184 187.178 163.553 186.794 163.291L185.426 162.306C185.257 162.183 185.026 162.183 184.857 162.306L183.489 163.291C183.104 163.568 182.597 163.199 182.735 162.737L183.243 161.121C183.304 160.921 183.243 160.706 183.074 160.583L181.721 159.582C181.337 159.305 181.536 158.705 182.013 158.705L183.704 158.69C183.919 158.69 184.104 158.551 184.165 158.351L184.703 156.75C184.795 156.304 185.426 156.304 185.579 156.75Z" fill="#7AE0F0"/>
<path d="M196.263 156.75L196.801 158.351C196.863 158.551 197.047 158.69 197.262 158.69L198.953 158.705C199.43 158.705 199.614 159.305 199.245 159.582L197.892 160.583C197.723 160.706 197.647 160.921 197.723 161.121L198.231 162.737C198.369 163.184 197.862 163.553 197.477 163.291L196.109 162.306C195.94 162.183 195.71 162.183 195.54 162.306L194.172 163.291C193.788 163.568 193.281 163.199 193.419 162.737L193.926 161.121C193.988 160.921 193.911 160.706 193.757 160.583L192.404 159.582C192.02 159.305 192.22 158.705 192.697 158.705L194.388 158.69C194.603 158.69 194.787 158.551 194.849 158.351L195.387 156.75C195.479 156.304 196.109 156.304 196.263 156.75Z" fill="#7AE0F0"/>
<path d="M206.947 156.75L207.485 158.351C207.547 158.551 207.731 158.69 207.946 158.69L209.637 158.705C210.114 158.705 210.298 159.305 209.929 159.582L208.577 160.583C208.407 160.706 208.331 160.921 208.407 161.121L208.915 162.737C209.053 163.184 208.546 163.553 208.162 163.291L206.793 162.306C206.624 162.183 206.394 162.183 206.225 162.306L204.856 163.291C204.472 163.568 203.965 163.199 204.103 162.737L204.61 161.121C204.672 160.921 204.595 160.706 204.441 160.583L203.089 159.582C202.704 159.305 202.904 158.705 203.381 158.705L205.072 158.69C205.287 158.69 205.471 158.551 205.533 158.351L206.071 156.75C206.178 156.304 206.809 156.304 206.947 156.75Z" fill="#7AE0F0"/>
<path d="M217.647 156.75L218.185 158.351C218.246 158.551 218.431 158.69 218.646 158.69L220.337 158.705C220.814 158.705 220.998 159.305 220.629 159.582L219.276 160.583C219.107 160.706 219.03 160.921 219.107 161.121L219.614 162.737C219.753 163.184 219.246 163.553 218.861 163.291L217.493 162.306C217.324 162.183 217.093 162.183 216.924 162.306L215.556 163.291C215.172 163.568 214.664 163.199 214.803 162.737L215.31 161.121C215.372 160.921 215.31 160.706 215.141 160.583L213.788 159.582C213.404 159.305 213.604 158.705 214.08 158.705L215.771 158.69C215.987 158.69 216.171 158.551 216.232 158.351L216.771 156.75C216.863 156.304 217.493 156.304 217.647 156.75Z" fill="#7AE0F0"/>
<path d="M316.984 86.3704C318.722 90.218 326.761 92.8805 330.974 97.4976L335.924 91.9571C335.924 91.9571 329.59 88.6328 326.746 83.3693C325.624 81.2916 323.041 79.8449 321.258 78.6291C319.767 77.6287 316.462 75.2894 315.954 75.3664C315.954 75.3664 315.217 75.6588 315.478 76.536C315.708 77.3055 318.429 79.2755 319.244 80.3682C319.244 80.399 316.001 84.2004 316.984 86.3704Z" fill="#F4C09D"/>
<path d="M404.823 250.893L403.793 263.482L395.4 266.545L393.586 249.569L404.823 250.893Z" fill="#F4C09D"/>
<path d="M404.163 262.189C405.761 262.174 407.791 268.7 406.468 270.223C404.716 272.255 391.649 273.04 384.501 272.009C379.121 271.239 376.215 269.177 384.547 266.545C390.957 264.529 391.788 262.082 394.001 262.728C399.366 264.283 404.163 262.189 404.163 262.189Z" fill="#233862"/>
<path d="M372.987 250.893L375.047 263.482L366.669 266.545L361.734 249.569L372.987 250.893Z" fill="#F4C09D"/>
<path d="M375.416 262.189C377.015 262.174 378.198 268.777 376.876 270.316C375.124 272.347 362.903 273.04 355.754 272.009C350.374 271.239 347.469 269.177 355.8 266.545C362.211 264.529 363.041 262.082 365.255 262.728C370.62 264.283 375.416 262.189 375.416 262.189Z" fill="#233862"/>
<path d="M406.868 143.053L406.177 259.527H391.419L380.996 173.957L369.113 208.677L378.014 259.527H361.965C361.965 259.527 347.853 215.588 348.422 206.954C348.99 198.32 365.285 139.498 365.285 139.498L406.868 143.053Z" fill="#4C5385"/>
<path d="M378.183 64.5623C380.873 73.2271 363.794 104.162 354.509 113.042C349.913 117.444 348.437 111.764 346.654 109.471C344.87 107.178 345.101 104.562 348.898 97.0513C356.492 82.0458 361.042 63.0233 378.183 64.5623Z" fill="#3CCFA4"/>
<path d="M356.677 105.793C357.984 109.779 353.464 120.86 341.812 110.072C328.453 97.7132 325.839 95.5123 325.839 95.5123L331.619 86.9553C331.604 86.9553 353.633 96.5435 356.677 105.793Z" fill="#3CCFA4"/>
<path d="M372.879 63.8852C377.982 62.9156 385.392 62.9463 387.56 62.8694V62.854C387.56 62.854 387.637 62.854 387.76 62.854C387.882 62.854 387.959 62.854 387.959 62.854V62.8694C390.127 62.9617 403.839 64.5931 409.281 67.548C412.632 69.3641 416.614 72.0728 412.094 97.6207C408.436 118.336 406.868 143.068 406.868 143.068L365.285 139.513C365.285 139.513 363.44 119.275 364.393 94.9274C365.162 75.1816 367.191 64.9625 372.879 63.8852Z" fill="#31DEAC"/>
<path d="M409.281 67.5481C417.613 71.134 431.218 103.515 431.925 116.351C432.279 122.707 426.237 121.353 423.347 121.23C420.442 121.106 419.366 118.013 416.137 110.256C409.666 94.7274 396.998 79.5987 409.281 67.5481Z" fill="#3CCFA4"/>
<path d="M391.434 63.1156C391.434 63.1156 392.049 66.3938 388.621 68.8408C388.621 68.8408 391.803 75.0431 394.478 73.2886C397.152 71.5341 395.246 63.7774 395.246 63.7774L391.68 61.4996L391.434 63.1156Z" fill="#29CF9F"/>
<path d="M381.857 62.8848C381.857 62.8848 381.688 65.7013 384.624 67.7943C384.624 67.7943 381.888 73.1348 379.582 71.6265C377.276 70.1183 379.259 63.2696 379.259 63.2696L381.841 61.392V62.8848H381.857Z" fill="#29CF9F"/>
<path d="M392.833 56.6979C392.833 56.6979 400.597 51.696 401.657 40.6612C402.318 33.8279 401.842 30.9037 394.017 31.5963C386.192 32.2735 392.833 56.6979 392.833 56.6979Z" fill="#282C3C"/>
<path d="M379.228 56.3439C379.228 56.3439 376.922 49.0027 373.31 43.9393C370.097 39.4453 370.666 30.8883 378.49 31.5809C386.315 32.2734 379.228 56.3439 379.228 56.3439Z" fill="#282C3C"/>
<path d="M386.377 69.1641H386.761C389.544 69.1641 391.804 66.9017 391.804 64.116V54.6664H381.35V64.116C381.35 66.9017 383.594 69.1641 386.377 69.1641Z" fill="#EFB68F"/>
<path d="M372.879 44.0317C372.879 54.0969 378.075 62.2692 384.486 62.2692C390.896 62.2692 396.092 54.1123 396.092 44.0317C396.092 33.951 390.896 29.6571 384.486 29.6571C378.091 29.6571 372.879 33.9664 372.879 44.0317Z" fill="#F4C09D"/>
<path d="M395.262 44.4318C395.262 44.4318 397.768 42.8774 399.167 44.8628C400.566 46.8481 396.215 51.1728 394.755 51.1728C394.77 51.1574 394.417 45.5091 395.262 44.4318Z" fill="#F4C09D"/>
<path d="M385.762 47.6485C386.229 47.6485 386.608 47.2695 386.608 46.802C386.608 46.3345 386.229 45.9556 385.762 45.9556C385.295 45.9556 384.917 46.3345 384.917 46.802C384.917 47.2695 385.295 47.6485 385.762 47.6485Z" fill="#282C3C"/>
<path d="M388.083 44.201C388.083 44.201 386.469 42.939 384.378 43.7855" stroke="#282C3C" stroke-width="0.75" stroke-miterlimit="10" stroke-linecap="round" stroke-linejoin="round"/>
<path d="M376.769 47.6485C377.236 47.6485 377.614 47.2695 377.614 46.802C377.614 46.3345 377.236 45.9556 376.769 45.9556C376.302 45.9556 375.923 46.3345 375.923 46.802C375.923 47.2695 376.302 47.6485 376.769 47.6485Z" fill="#282C3C"/>
<path d="M374.447 44.201C374.447 44.201 376.061 42.939 378.152 43.7855" stroke="#282C3C" stroke-width="0.75" stroke-miterlimit="10" stroke-linecap="round" stroke-linejoin="round"/>
<path d="M381.257 46.5558C381.257 46.5558 380.489 49.757 380.243 50.5111C379.997 51.2652 381.688 51.7115 381.688 51.7115" stroke="#E2A57C" stroke-width="0.5" stroke-miterlimit="10" stroke-linecap="round" stroke-linejoin="round"/>
<path d="M385.516 53.6506C385.516 53.6506 383.902 56.6056 380.228 56.0361" stroke="#E2A57C" stroke-width="0.5" stroke-miterlimit="10" stroke-linecap="round" stroke-linejoin="round"/>
<path d="M396.646 39.153C396.646 39.153 396.246 47.4791 394.924 47.0174C394.002 46.6942 390.574 41.3846 391.404 35.3516C392.249 29.3185 394.263 32.9968 394.263 32.9968C394.263 32.9968 396.999 37.2446 396.646 39.153Z" fill="#282C3C"/>
<path d="M375.339 26.0558C376.723 24.9169 378.49 24.3013 380.243 24.0704C382.042 23.8396 384.363 23.7934 386.115 24.332C387.514 24.763 388.559 25.1939 390.097 25.2709C393.048 25.4555 395.969 26.2866 398.582 27.7487C400.627 28.8876 402.641 30.6575 402.856 33.0584C403.041 34.9668 401.98 36.829 400.566 38.0448C399.674 38.8143 398.659 39.3376 397.629 39.8455C396.768 40.261 396.123 40.9382 395.308 41.3691C393.264 42.4157 390.312 41.4923 388.559 40.2302C386.73 38.9221 385.285 36.9059 383.179 36.1826C381.58 35.6439 379.859 35.9056 378.183 35.9517C376.461 35.9979 374.463 35.6901 373.587 33.9972C372.434 31.7502 372.741 28.9953 374.324 27.0561C374.632 26.7022 374.97 26.3636 375.339 26.0558Z" fill="#282C3C"/>
<path d="M395.246 142.068C395.246 142.068 396.63 151.333 406.806 152.872L406.868 143.053L395.246 142.068Z" fill="#3D415B"/>
<path d="M408.575 146.177L403.779 152.118C403.779 152.118 399.413 151.164 397.491 147.301L403.302 138.821L408.575 146.177Z" fill="#F4C09D"/>
<path d="M422.01 109.948C424.608 108.594 432.602 113.519 431.664 118.859C431.249 121.183 428.99 124.954 425.9 128.632C414.339 142.36 408.098 148.609 408.098 148.609L400.043 141.883C400.043 141.868 415.677 113.242 422.01 109.948Z" fill="#3CCFA4"/>
<path d="M328.206 86.1857C328.206 86.1857 328.391 81.307 328.145 80.5375C327.914 79.7679 325.454 77.7672 325.147 77.4748C324.84 77.167 324.44 78.352 324.763 78.9984C325.07 79.6448 325.839 80.4451 325.531 82.5998C325.331 84.0003 328.206 86.1857 328.206 86.1857Z" fill="#F4C09D"/>
<path d="M380.996 173.957L378.475 154.642L374.324 193.472L380.996 173.957Z" fill="#3D415B"/>
</svg>
